<?xml version="1.0" standalone="no"?>
<!DOCTYPE svg PUBLIC "-//W3C//DTD SVG 1.1//EN" "http://www.w3.org/Graphics/SVG/1.1/DTD/svg11.dtd" >
<svg xmlns="http://www.w3.org/2000/svg">
<metadata>
Created by FontForge 20120731 at Fri Jun 23 13:47:10 2017
 By admin
</metadata>
<defs>
<font id="iconfont" horiz-adv-x="1024" >
  <font-face 
    font-family="iconfont"
    font-weight="500"
    font-stretch="normal"
    units-per-em="1024"
    panose-1="2 0 6 3 0 0 0 0 0 0"
    ascent="896"
    descent="-128"
    x-height="792"
    bbox="-0.769231 -353 2560 915"
    underline-thickness="0"
    underline-position="0"
    unicode-range="U+0078-EA0A"
  />
<missing-glyph 
 />
    <glyph glyph-name=".notdef" 
 />
    <glyph glyph-name=".notdef" 
 />
    <glyph glyph-name=".null" horiz-adv-x="0" 
 />
    <glyph glyph-name="nonmarkingreturn" horiz-adv-x="341" 
 />
    <glyph glyph-name="x" unicode="x" horiz-adv-x="1001" 
d="M281 543q-27 -1 -53 -1h-83q-18 0 -36.5 -6t-32.5 -18.5t-23 -32t-9 -45.5v-76h912v41q0 16 -0.5 30t-0.5 18q0 13 -5 29t-17 29.5t-31.5 22.5t-49.5 9h-133v-97h-438v97zM955 310v-52q0 -23 0.5 -52t0.5 -58t-10.5 -47.5t-26 -30t-33 -16t-31.5 -4.5q-14 -1 -29.5 -0.5
t-29.5 0.5h-32l-45 128h-439l-44 -128h-29h-34q-20 0 -45 1q-25 0 -41 9.5t-25.5 23t-13.5 29.5t-4 30v167h911zM163 247q-12 0 -21 -8.5t-9 -21.5t9 -21.5t21 -8.5q13 0 22 8.5t9 21.5t-9 21.5t-22 8.5zM316 123q-8 -26 -14 -48q-5 -19 -10.5 -37t-7.5 -25t-3 -15t1 -14.5
t9.5 -10.5t21.5 -4h37h67h81h80h64h36q23 0 34 12t2 38q-5 13 -9.5 30.5t-9.5 34.5q-5 19 -11 39h-368zM336 498v228q0 11 2.5 23t10 21.5t20.5 15.5t34 6h188q31 0 51.5 -14.5t20.5 -52.5v-227h-327z" />
    <glyph glyph-name="fanhui" unicode="&#xe600;" 
d="M359 441l320 321q12 12 12 29t-12 29t-29 12.5t-30 -11.5l-366 -366q-6 -6 -6 -14t6 -13l366 -366q13 -12 30 -11.5t29 12.5t12 29t-12 29z" />
    <glyph glyph-name="sousuo" unicode="&#xe621;" 
d="M961 -104l-272 272q86 100 86 231q0 97 -47.5 178.5t-129.5 129.5t-178.5 48t-178.5 -48t-129.5 -129.5t-47.5 -178t47.5 -178.5t129.5 -129.5t178 -47.5q115 0 208 67l275 -274zM106 399.5q0 129.5 92 221.5t221.5 92t221.5 -92t92 -221.5t-92 -221.5t-221.5 -92
t-221.5 92t-92 221.5z" />
    <glyph glyph-name="weixin" unicode="&#xe61a;" 
d="M580 384q-9 0 -16 -7t-7 -17q0 -8 7 -15t16 -7q13 0 21.5 6.5t8.5 15.5q0 10 -8.5 17t-21.5 7v0zM503 497q14 0 22 8t8 21t-8 21t-22 8t-24 -8t-10 -21t10 -21t24 -8v0zM512 895q-104 0 -198.5 -40.5t-163 -109t-109 -163t-40.5 -198.5t40.5 -199t109 -163.5t163 -109
t198.5 -40.5t199 40.5t163.5 109t109 163.5t40.5 199t-40.5 198.5t-109 163t-163.5 109t-199 40.5v0zM416 254q-36 0 -83 13l-84 -42l24 72q-94 66 -94 158q0 84 69 142t168 58q87 0 154.5 -46.5t82.5 -118.5q-12 2 -22 2q-85 0 -143 -55t-58 -132q0 -23 6 -50q-6 -1 -20 -1
v0zM763 172l17 -60l-63 36q-5 -1 -22 -5t-28 -5.5t-22 -1.5q-84 0 -142 50t-58 121.5t58 121.5t142 50q80 0 140.5 -50.5t60.5 -121.5q0 -74 -83 -135v0zM338 555q-14 0 -25 -8t-11 -21t11 -21t25 -8q13 0 21.5 8t8.5 21t-8.5 21t-21.5 8v0zM711 384q-10 0 -17 -7t-7 -17
q0 -8 7.5 -15t16.5 -7q12 0 20.5 6.5t8.5 15.5q0 10 -8.5 17t-20.5 7v0zM711 384z" />
    <glyph glyph-name="tubiao4" unicode="&#xe6e4;" 
d="M817.5 -108q-33.5 0 -57.5 24t-24 58t24 57.5t57.5 23.5t57.5 -23.5t24 -57.5t-24 -58t-57.5 -24zM817.5 18q-18.5 0 -31.5 -13t-13 -31t13 -31t31.5 -13t31 13t12.5 31t-12.5 31t-31 13zM449.5 -108q-33.5 0 -57.5 24t-24 58t24 57.5t57.5 23.5t57.5 -23.5t24 -57.5
t-24 -58t-57.5 -24zM449 18q-18 0 -31 -13t-13 -31t13 -31t31 -13t31 13t13 31t-13 31t-31 13zM893 79h-582q-10 0 -15.5 8.5t-2.5 17.5l54 143l-143 422h-121q-8 0 -13.5 5.5t-5.5 13.5t5.5 13.5t13.5 5.5h135q13 0 17 -13l150 -441q2 -6 0 -13l-47 -124h555q8 0 13.5 -5.5
t5.5 -13t-5.5 -13.5t-13.5 -6zM836 229h-469q-8 0 -13.5 5.5t-5.5 13.5t5.5 13.5t13.5 5.5h456l92 290h-655q-8 0 -13.5 5.5t-5.5 13.5t5.5 13.5t13.5 5.5h681q10 0 15 -8q6 -8 3 -17l-105 -328q-4 -13 -18 -13z" />
    <glyph glyph-name="shezhi1" unicode="&#xe645;" 
d="M945 204h-54q-13 -48 -37 -90l50 -50q24 -24 24 -58t-24 -58l-29 -29q-24 -24 -58 -24t-58 24l-50 50q-43 -24 -90 -37v-52q0 -34 -24 -58t-58 -24h-41q-34 0 -58 24t-24 58v52q-48 13 -90 37l-50 -50q-24 -24 -58 -24t-58 24l-29 29q-24 24 -24 58t24 58l50 50
q-24 42 -37 90h-54q-34 0 -58 24t-24 58v40q0 34 24 58t58 24h53q13 48 36 90l-48 48q-24 24 -24 58t24 58l29 29q24 24 58 24t58 -24l47 -47q44 25 93 38v55q0 34 24 58t58 24h41q34 0 58 -24t24 -58v-55q49 -13 93 -38l47 47q24 24 58 24t58 -24l29 -29q24 -24 24 -58
t-24 -58l-48 -48q23 -42 36 -90h53q34 0 58 -24t24 -58v-40q0 -34 -24 -58t-58 -24zM517 565q-108 0 -184.5 -76t-76.5 -184t76.5 -184.5t184.5 -76.5t184 76.5t76 184.5t-76 184t-184 76zM516.5 205q-42.5 0 -72.5 30t-30 72.5t30 72.5t72.5 30t72.5 -30t30 -72.5
t-30 -72.5t-72.5 -30z" />
    <glyph glyph-name="order" unicode="&#xe647;" 
d="M706 328h-385q-9 0 -15.5 -6.5t-6.5 -16.5v-11q0 -9 6.5 -15.5t15.5 -6.5h385q9 0 15 6.5t6 15.5v11q0 10 -6 16.5t-15 6.5zM504 126h-184q-9 0 -15 -7t-6 -16v-11q0 -10 6 -16.5t15 -6.5h184q9 0 15 6.5t6 16.5v11q0 9 -6 16t-15 7zM896 800h-766q-18 0 -31.5 -13.5
t-13.5 -33.5v-929q0 -20 13.5 -33.5t31.5 -13.5h546q20 4 38 22l205 205q18 17 23 46v703q0 20 -13.5 33.5t-32.5 13.5zM885 11v2v0v-2zM885 58h-175q-30 0 -40 -10.5t-10 -39.5v-116v0v-59h-493q-11 0 -18 7.5t-7 18.5v859q0 11 7 18.5t18 7.5h693q11 0 18 -7.5t7 -18.5
v-660v0zM706 542h-385q-9 0 -15.5 -7t-6.5 -16v-11q0 -10 6.5 -16.5t15.5 -6.5h385q9 0 15 6.5t6 16.5v11q0 9 -6 16t-15 7z" />
    <glyph glyph-name="iconfontcha" unicode="&#xe61b;" 
d="M755 683l-243 -242l-243 242q-10 10 -23.5 10t-23.5 -9.5t-10 -23.5t10 -24l243 -243l-243 -243q-10 -9 -10 -23t10 -24t23.5 -10t23.5 10l243 243l243 -243q10 -10 23.5 -10t23.5 10t10 24t-10 23l-243 243l243 243q10 10 10 24t-10 23.5t-23.5 9.5t-23.5 -10z" />
    <glyph glyph-name="geren" unicode="&#xe601;" 
d="M512 777q98 0 166.5 -69t68.5 -166.5t-68.5 -166t-166.5 -68.5t-166.5 68.5t-68.5 166t68.5 166.5t166.5 69zM512 841q-123 0 -211 -88t-88 -211t88 -211t211 -88t211 88t88 211t-88 211t-211 88v0zM917 -73q-16 0 -25 13q-66 93 -166 145t-214 52t-214 -52t-166 -145
q-8 -11 -21 -13t-24 5q-10 8 -12.5 21t4.5 24q75 105 190 164.5t243 59.5t243 -59.5t190 -164.5q8 -12 5.5 -24.5t-13.5 -20.5q-7 -5 -20 -5z" />
    <glyph glyph-name="chongzhi" unicode="&#xe660;" 
d="M725 745h-422q-37 0 -63.5 -27t-26.5 -65v-703q0 -39 26.5 -65.5t63.5 -26.5h422q38 0 64.5 26.5t26.5 65.5v703q0 38 -26.5 65t-64.5 27zM394 668q0 7 4 11.5t11 4.5h211q6 0 10.5 -4.5t4.5 -11.5v-30q0 -6 -4.5 -10.5t-10.5 -4.5h-211q-7 0 -11 4.5t-4 10.5v30z
M514 -81q-25 0 -42.5 18t-17.5 43t17.5 43t42.5 18t43 -18t18 -43t-18 -43t-43 -18zM725 72h-422v520h422v-520z" />
    <glyph glyph-name="guanzhu" unicode="&#xe64b;" 
d="M523 -159l-453 418q-70 84 -70 197q0 126 89 214.5t216 88.5q118 0 209 -81q88 81 209 81q124 0 212.5 -88.5t88.5 -214.5q0 -113 -70 -197l-3 -2l-354 -322l-42 47l350 318q55 69 55 154q0 99 -70.5 170t-170.5 71q-54 0 -102 -22.5t-82 -63.5l-23 -27l-23 29
q-34 41 -82.5 63.5t-101.5 22.5q-101 -2 -171 -72t-70 -169q0 -89 55 -154l446 -414zM486 48l-322 299q-36 49 -36 109q0 72 52 124.5t125 52.5v-64q-46 0 -79.5 -33.5t-33.5 -79.5q0 -37 21 -69l316 -294zM623 503l-58 32q37 64 105 83q70 20 134 -15l-30 -56q-37 23 -85 9
q-46 -11 -66 -53z" />
    <glyph glyph-name="sousuo1" unicode="&#xe6ad;" 
d="M394.5 607q-68.5 4 -120 -41t-55.5 -113t41.5 -118.5t114 -55t120 41t56 113t-41.5 118.5t-114.5 55zM512 810q-104 0 -198.5 -40.5t-162.5 -108.5t-108.5 -162.5t-40.5 -198t40.5 -198t108.5 -162.5t162.5 -108.5t198.5 -40.5t198.5 40.5t163 108.5t108.5 162.5t40 198
t-40 198t-108.5 162.5t-163 108.5t-198.5 40.5zM807 -13l-18 -16q-11 -9 -22.5 -15t-24.5 -6t-21 10l-129 144q-11 12 -12 28.5t8 29.5l-70 79q-68 -44 -148 -39q-101 6 -167.5 80.5t-60.5 174t81.5 165.5t176.5 60t167.5 -80.5t60.5 -173.5q-5 -92 -72 -157l69 -77
q14 7 30.5 4.5t27.5 -14.5l128 -129v0q14 -15 12.5 -34.5t-16.5 -33.5z" />
    <glyph glyph-name="dingdan" unicode="&#xe6bc;" 
d="M537.5 506q40.5 0 68.5 29.5t28 70.5q0 47 -35 77q3 -11 3 -20q0 -28 -19.5 -48t-46.5 -20t-46.5 20t-19.5 48q0 8 2 16q-31 -29 -31 -73q0 -41 28 -70.5t68.5 -29.5zM534.5 634q26.5 0 45.5 19.5t19 47t-19 47t-45.5 19.5t-45.5 -19.5t-19 -47t19 -47t45.5 -19.5zM79 38
l156 -63q-6 12 -21.5 116t-29 203t-12.5 98zM712 -167l10 153l-349 -36zM818 675l-170 -26q16 -30 16 -64q0 -54 -37 -92t-89.5 -38t-89.5 38t-37 92q0 14 2 28l-209 -31q4 -90 29.5 -246t44.5 -246.5t24 -111.5l651 114q-20 21 -54 168t-57.5 278t-23.5 137zM327 356
l277 41l9 -31l-277 -41zM387 122l-10 35l341 50l10 -35zM366 223l-13 35l439 60l13 -35z" />
    <glyph glyph-name="share" unicode="&#xe690;" 
d="M750 168v1v0v0v-1zM725 181v0v0v0v0zM789 136q-57 0 -94 -43l-246 155q16 34 16 71q0 39 -17 75l229 130q31 -45 85 -45q43 0 73.5 30.5t30.5 74t-30.5 74t-73.5 30.5t-73.5 -30.5t-30.5 -74.5q0 -8 1 -17l-235 -134q-53 64 -136 64q-73 0 -124.5 -51.5t-51.5 -125
t51.5 -125t124.5 -51.5q41 0 77 17.5t61 48.5l246 -155q-7 -20 -7 -42q0 -51 36 -87.5t87.5 -36.5t87.5 36.5t36 87.5t-36 87.5t-87 36.5zM761.5 642q24.5 0 42 -17t17.5 -41.5t-17.5 -42t-42 -17.5t-41.5 17.5t-17 42t17 41.5t41.5 17zM287 185q-55 0 -94 39t-39 94t39 94
t94 39t93.5 -39t38.5 -94t-38.5 -94t-93.5 -39zM788.5 -66q-32.5 0 -55.5 23t-23 55.5t23 55t55.5 22.5t55.5 -22.5t23 -55t-23 -55.5t-55.5 -23z" />
    <glyph glyph-name="iconfontshouye1" unicode="&#xe689;" 
d="M275 -114q-28 0 -49 18t-21 56v308h-64q-19 0 -35 20q-17 21 -17 49v8l411 426q7 7 20 7q15 0 22 -7q2 -2 414 -422l6 -6v-8q0 -27 -9 -43q-14 -22 -41 -22h-62l-1 -313v-2q-4 -17 -15 -33q-24 -36 -64 -36h-152v20q1 282 0 293q0 4 -3 10.5t-7 6.5h-164q-4 0 -7.5 -5
t-3.5 -11v-314h-154h-4zM143 307h102v-347q0 -34 30 -34h2h1h1h114v274q0 22 15 39t36 17h164q25 0 40 -23q10 -16 10 -33q1 -11 0 -274h112q28 0 39 37l1 346h102q5 0 6 3q3 5 4 15q-374 381 -401 408l-392 -405q3 -16 14 -23z" />
    <glyph glyph-name="vip" unicode="&#xe6ac;" 
d="M52 479h115l81 -258l79 258h112l-133 -358h-119zM480 479h110v-358h-110v358zM669 479h184q60 0 89.5 -28.5t29.5 -81.5q0 -54 -32.5 -84.5t-98.5 -30.5h-61v-133h-111v358zM780 326h27q32 0 45 11.5t13 28.5t-11 28.5t-42 11.5h-32v-80z" />
    <glyph glyph-name="tianjia1" unicode="&#xe6c8;" 
d="M960 268q0 98 -38 186.5t-102.5 153t-153 102.5t-186.5 38t-186.5 -38t-153 -102.5t-102.5 -153t-38 -186.5t38 -186.5t102.5 -153t153 -102.5t186.5 -38t186.5 38t153 102.5t102.5 153t38 186.5zM64 268q0 172 122 294t294 122t294 -122t122 -294t-122 -294t-294 -122
t-294 122t-122 294zM704 300h-192v192q0 13 -9.5 22.5t-22.5 9.5t-22.5 -9.5t-9.5 -22.5v-192h-192q-13 0 -22.5 -9.5t-9.5 -22.5t9.5 -22.5t22.5 -9.5h192v-192q0 -13 9.5 -22.5t22.5 -9.5t22.5 9.5t9.5 22.5v192h192q13 0 22.5 9.5t9.5 22.5t-9.5 22.5t-22.5 9.5z" />
    <glyph glyph-name="shezhi2" unicode="&#xe64e;" 
d="M336 155zM945 413l20 47l-53 33q4 22 0 44l53 32l-20 48l-60 -14q-10 15 -31 32l13 60l-47 20l-33 -53q-22 4 -44 0l-32 53l-48 -20l13 -60q-16 -11 -32 -32l-59 14l-20 -47l51 -33q-3 -23 0 -44l-52 -32l20 -48l60 13q14 -18 32 -32l-14 -60l47 -20l33 53q22 -4 44 0
l33 -53l47 20l-14 60q18 13 31 31l62 -12v0zM737 448q-27 12 -38.5 39.5t-0.5 55.5q12 27 39.5 38t55.5 1q27 -12 38.5 -39.5t-0.5 -55.5q-11 -27 -38.5 -38t-55.5 -1v0zM684 132v68l-80 13q-8 31 -22 53l47 67l-47 47l-66 -47q-22 14 -53 22l-14 80h-68l-13 -80
q-29 -7 -54 -21l-65 47l-48 -47l46 -66q-14 -22 -23 -53l-79 -13v-68l79 -14q8 -29 23 -54l-47 -66l47 -48l65 46q23 -14 54 -23l13 -79h67l15 79q30 8 53 23l67 -47l47 48l-47 65q15 25 21 54l82 14v0zM415 72q-39 0 -66.5 27.5t-27.5 66.5t27.5 66.5t66.5 27.5t66.5 -27.5
t27.5 -66.5t-27.5 -66.5t-66.5 -27.5v0zM415 72z" />
    <glyph glyph-name="vipffb400" unicode="&#xe66d;" 
d="M982 480q-4 5 -49 57.5t-91 105.5t-69 77q-9 11 -15 16t-15.5 9.5t-21.5 4.5q-24 1 -417 0v0q-28 0 -53 -29q-22 -26 -104.5 -120.5t-103.5 -120.5q-21 -24 -21.5 -54.5t21.5 -65.5q12 -15 417 -481q26 -30 52 -30t53 30q410 473 417 481q19 23 20 57.5t-20 62.5z
M930 390q-24 -28 -161 -182.5t-215 -244.5q-20 -24 -41 -24t-42 24q-79 92 -217.5 248t-158.5 179q-11 11 -10.5 27.5t10.5 32.5q18 21 93 107t90 103q6 8 12.5 13.5t12.5 8.5t11 5t10.5 2.5t8.5 1t7.5 0t5.5 -0.5h333q28 0 40.5 -6t27.5 -24q78 -89 183 -210q20 -28 0 -60z
M790 450h-99q-13 0 -20 -11l-158 -223l-0.5 -0.5l-0.5 -0.5v1l-158 223q-7 11 -20 11h-99q-10 0 -10 -11v-55q0 -11 10 -11h10h6.5t4.5 -1.5t3 -2t3 -3t3 -4.5q22 -30 84 -113t112.5 -151l50.5 -68v1l0.5 -0.5l0.5 -0.5q197 265 247 332q1 1 3 4t3 3.5t3 2t4.5 1.5h6.5h9
q10 0 10 11v55q0 5 -2.5 8t-6.5 3z" />
    <glyph glyph-name="wo" unicode="&#xe615;" 
d="M521.5 721q-117.5 0 -217 -58t-157.5 -157.5t-58 -217t58 -217t157.5 -157.5t217 -58t217 58t157.5 157.5t58 217t-58 217t-157.5 157.5t-217 58zM805 6q-28 63 -80 108t-119 63q42 23 67 64.5t25 90.5q0 73 -52 124.5t-125 51.5t-124.5 -51.5t-51.5 -124.5
q0 -51 26 -92.5t69 -64.5q-66 -19 -117 -65.5t-77 -110.5q-59 56 -92 131t-33 159q0 108 53.5 200.5t146 146t201 53.5t201 -53.5t146 -146t53.5 -200.5q0 -82 -31 -155t-86 -128z" />
    <glyph glyph-name="biaoqing07" unicode="&#xe602;" 
d="M512 843q-93 0 -178 -36.5t-146.5 -98t-98 -146t-36.5 -178t36.5 -178.5t98 -146.5t146.5 -97.5t178 -36t178 36t146.5 97.5t98 146.5t36.5 178.5t-36.5 178t-98 146t-146.5 98t-178 36.5zM512 -20q-110 0 -203 54t-147.5 147.5t-54.5 203t54.5 203t147.5 147.5t203 54
t203 -54t147.5 -147.5t54.5 -203t-54.5 -203t-147.5 -147.5t-203 -54zM396 634l-27 -2q0 -7 -0.5 -17.5t-8.5 -35.5t-23 -40q-32 -31 -91 -26l-2 -27q8 -1 17 -1q60 0 95 35q19 19 29 48.5t11 43t0 22.5zM687 539q-15 15 -23 40t-8.5 35.5t-0.5 17.5l-27 2q-1 -9 0 -22.5
t11 -43t29 -48.5q35 -35 95 -35q9 0 17 1l-2 27q-59 -5 -91 26zM640.5 190q-19.5 0 -34.5 9t-16 22l-14 -2l-14 2q-1 -13 -15.5 -22t-34.5 -9t-34.5 9t-15.5 22l-14 -2l-14 2q-1 -13 -16 -22t-34.5 -9t-34 9t-15.5 22l-27 -3q3 -24 25 -39.5t52 -15.5q41 0 64 26
q23 -26 64 -26t64 26q23 -26 64 -26q30 0 52 15.5t25 39.5l-27 3q-1 -13 -15.5 -22t-34 -9zM313 426.5q0 -17.5 12.5 -30t30 -12.5t30 12.5t12.5 30t-12.5 30t-30 12.5t-30 -12.5t-12.5 -30zM626 426.5q0 -17.5 12.5 -30t30 -12.5t30 12.5t12.5 30t-12.5 30t-30 12.5
t-30 -12.5t-12.5 -30z" />
    <glyph glyph-name="aixinyizhan" unicode="&#xe632;" 
d="M918 700q-44 36 -90 51.5t-84.5 11.5t-74.5 -18.5t-64 -35t-49 -40.5t-32 -33l-11 -13q-40 48 -84.5 77t-83.5 37.5t-77.5 6.5t-68 -12t-53.5 -22t-36 -20t-12 -9q-130 -119 -57 -289q23 -55 55 -92q65 -87 151 -166.5t162 -131.5t143 -91t106 -57t40 -17q8 74 22 130.5
t31.5 93.5t37.5 64t43.5 50.5l45.5 45.5t47.5 57t46.5 77q30 60 35 117.5t-8 97t-31.5 70t-33.5 46t-16 14.5zM780 332q-17 -33 -38.5 -58.5t-38.5 -42t-34 -39t-29.5 -62.5t-19.5 -100q-9 4 -24 11t-59.5 32t-85.5 54t-92 75.5t-89 97.5q-4 5 -10.5 14t-19.5 35.5t-16.5 52
t7 59t40.5 61.5q5 4 14.5 10t37.5 16.5t55.5 11t65 -16.5t69.5 -55q4 6 12.5 15.5t34 29.5t52 30t64.5 4.5t72 -34.5q1 0 10 -9t19.5 -26.5t18 -40.5t4.5 -56.5t-20 -68.5z" />
    <glyph glyph-name="gouxuan1" unicode="&#xe6b1;" 
d="M512 745q-91 0 -173.5 -35t-142 -94.5t-94.5 -142t-35 -173.5t35 -173.5t94.5 -142t142 -94.5t173.5 -35t173.5 35t142 94.5t94.5 142t35 173.5t-35 173.5t-94.5 142t-142 94.5t-173.5 35zM768 430l-310 -310q-10 -10 -30 -10h-2h-1v0h-3q-20 0 -30 10l-136 136
q-10 10 -10 25t10 25t24.5 10t25.5 -10l113 -114q3 -2 6.5 -2t5.5 2l287 288q11 10 25.5 10t24.5 -10.5t10 -25t-10 -24.5z" />
    <glyph glyph-name="tongxuequandisc" unicode="&#xe7e1;" 
d="M492 155q-22 18 -41.5 40.5t-41 56.5t-34 80t-12.5 97q2 211 171 344q20 14 35 17h-6h-7q-147 0 -266 -83.5t-170 -216.5q58 -9 97 -53.5t39 -104.5q0 -61 -41 -106t-101 -52q0 -1 1 -4t1 -4q14 -8 33.5 -16t62.5 -20t84.5 -15.5t95.5 5.5t100 35zM800 620q40 0 68 28
t28 68t-28 68t-68 28t-68 -28t-28 -68t28 -68t68 -28zM736 -20q-40 0 -68 -28t-28 -68t28 -68t68 -28t68 28t28 68t-28 68t-68 28zM711 368q-9 -129 -121 -227q-140 -123 -392 -69q-10 2 -26.5 9.5t-21.5 10.5q61 -108 169.5 -172.5t236.5 -64.5q5 0 12.5 0.5t10.5 0.5
q-3 16 -3 28q0 66 47 113t113 47q40 0 74.5 -18.5t57.5 -50.5l1.5 1t2.5 2q1 13 1.5 30.5t-4.5 62.5t-17.5 87t-43 95t-74.5 96q-12 10 -23 19zM922 614q-48 -58 -122 -58q-66 0 -113 47t-47 113q0 33 13 64q-1 0 -3 0.5t-4 1.5q-9 -5 -22 -12t-47 -34t-61.5 -58.5
t-54 -84.5t-35.5 -114q22 5 46 7.5t65.5 1.5t80 -9t83 -28.5t80.5 -53.5q77 -72 112 -151.5t39 -200.5q92 125 92 278q0 163 -102 291zM192 332q0 40 -28 68t-68 28t-68 -28t-28 -68t28 -68t68 -28t68 28t28 68z" />
    <glyph glyph-name="shouji1" unicode="&#xe66b;" 
d="M854 33v168v350v82q0 45 -30.5 75.5t-75.5 34.5h-4h-3h-283h-157q-85 0 -120 -56q-5 -8 -8.5 -17t-4.5 -20.5t-1 -18v-21.5v-19v-156v-381v-84q0 -46 33.5 -77t79.5 -31h313q13 0 40 -1.5t46 -1.5t45 1t44.5 7t37 15.5t30 27.5t16.5 43q2 11 2.5 24t0 31t-0.5 25z
M805 443v-383v-89q0 -17 -7 -29t-15.5 -18t-23.5 -9t-25 -3.5t-27 -0.5h-356q-6 0 -26 -0.5t-31 -0.5t-27 3t-26 10q-10 5 -15.5 13.5t-7.5 21.5t-2.5 21t0 24t0.5 20v365v247q0 11 2 19.5t7.5 14.5t10 10.5t14 7t14 4t17 2.5t16.5 1h17h15h177h238q17 -1 29 -8t18 -15
t9.5 -23t4 -25t0.5 -28v-152zM585 7h-146q-10 0 -17 7t-7 17v0q0 10 7 17t17 7h146q10 0 17 -7t7 -17v0q0 -10 -7 -17t-17 -7zM636 595h-256q-27 0 -46.5 -19.5t-19.5 -47.5v-309q0 -27 19.5 -46.5t46.5 -19.5h256q28 0 47.5 19.5t19.5 46.5v309q0 28 -19.5 47.5t-47.5 19.5
zM657 247q0 -18 -13 -30.5t-31 -12.5h-216q-17 0 -29 12t-12 29v256q0 20 14 34.5t34 14.5h204q20 0 34.5 -14.5t14.5 -34.5v-254z" />
    <glyph glyph-name="sousuo2" unicode="&#xe6b4;" 
d="M949 -90l-207 207q91 108 91 248q0 104 -51 192.5t-139.5 140t-193 51.5t-193 -51.5t-140 -140t-51.5 -192.5t51.5 -192.5t140 -140t192.5 -51.5q141 0 248 91l207 -207q11 -11 25 -11.5t23.5 9t8.5 23.5t-12 24zM449.5 45q-86.5 0 -160.5 43t-117 116.5t-43 160.5
t43 160.5t117 116.5t160.5 43t160.5 -43t116.5 -116.5t42.5 -160.5t-42.5 -160.5t-116.5 -116.5t-160.5 -43z" />
    <glyph glyph-name="shezhi3" unicode="&#xe667;" 
d="M215.5 522q-11.5 0 -19.5 8t-8 20v178q0 11 8 19t19.5 8t19.5 -8t8 -19v-178q0 -12 -8 -20t-19.5 -8zM215.5 -149q-11.5 0 -19.5 8t-8 19v425q0 11 8 19.5t19.5 8.5t19.5 -8.5t8 -19.5v-425q0 -11 -8 -19t-19.5 -8zM210 277q-58 0 -99.5 41.5t-41.5 99.5t41.5 99.5
t99.5 41.5t99.5 -41.5t41.5 -99.5t-41.5 -99.5t-99.5 -41.5zM210.5 504q-35.5 0 -61 -25.5t-25.5 -61t25.5 -60.5t61 -25t60.5 25t25 60.5t-25 61t-60.5 25.5zM236 450h-3l-4 1q-5 1 -8.5 5.5t-2.5 10.5t6 9t10 2l4 -1q6 -1 9 -5.5t2 -10.5q-2 -11 -13 -11zM163 390
q-6 0 -10 4t-4 10q0 43 38 65q12 6 18.5 -5.5t-5.5 -18.5q-23 -14 -23 -41q0 -6 -4 -10t-10 -4zM516.5 276q-11.5 0 -19.5 8t-8 19v425q0 11 8 19t19.5 8t19.5 -8t8 -19v-425q0 -11 -8 -19t-19.5 -8zM516.5 -149q-11.5 0 -19.5 8t-8 19v178q0 12 8 20t19.5 8t19.5 -8t8 -20
v-178q0 -11 -8 -19t-19.5 -8zM511.5 30q-58.5 0 -99.5 41.5t-41 99.5t41 99.5t99.5 41.5t99.5 -41.5t41 -99.5t-41 -99.5t-99.5 -41.5zM511.5 257q-35.5 0 -60.5 -25t-25 -60.5t25 -61t60.5 -25.5t61 25.5t25.5 61t-25.5 60.5t-61 25zM537 203h-3l-3 1q-6 1 -9 6t-2 10.5
t5.5 8.5t10.5 2l4 -1q5 -1 8.5 -5.5t2.5 -10.5q-3 -11 -14 -11zM464.5 144q-5.5 0 -9.5 4t-4 9q0 43 37 65q12 7 19 -5t-5 -19q-24 -13 -24 -41q0 -5 -4 -9t-9.5 -4zM832 618q-11 0 -19 8t-8 20v82q0 11 8 19t19 8t19 -8t8 -19v-82q0 -12 -8 -20t-19 -8zM832 -149
q-11 0 -19 8t-8 19v521q0 11 8 19t19 8t19 -8t8 -19v-521q0 -11 -8 -19t-19 -8zM827 373q-58 0 -99.5 41t-41.5 99.5t41.5 99.5t99.5 41t99.5 -41t41.5 -99.5t-41.5 -99.5t-99.5 -41zM826.5 600q-35.5 0 -60.5 -25.5t-25 -61t25 -60.5t60.5 -25t61 25t25.5 60.5t-25.5 61
t-61 25.5zM852 546h-2l-4 1q-6 1 -9 5.5t-2 10.5t6 9t10 2l4 -1q5 -1 8.5 -6t2.5 -10q-2 -11 -14 -11zM779.5 486q-5.5 0 -9.5 4t-4 10q0 43 38 65q11 6 18 -5.5t-5 -18.5q-23 -14 -23 -41q0 -6 -4.5 -10t-10 -4z" />
    <glyph glyph-name="shou" unicode="&#xe616;" 
d="M415 514q-2 17 -4 29q-20 7 -36 23q-24 26 -24 63.5t24 63.5v0q25 26 60 26t59.5 -26t24.5 -63.5t-24 -63.5q4 -14 8 -29l10 10v0q32 34 32 82.5t-32.5 82.5t-77.5 34t-77.5 -34t-32.5 -82.5t32 -82.5q25 -27 58 -33zM720 306l-1 1q-13 29 -34 53q-27 30 -64 36v0l-18 1
l-11 20q-2 4 -6 7q-22 21 -52 22l-18 -4v2h-1l-55 223q-5 19 -13.5 23.5t-21.5 2.5q-1 0 -3 -0.5t-7 -3t-8 -6.5t-5 -11.5t-1 -16.5l55 -312q1 -6 1 -10q0 -21 -14 -38q-3 -6 -8 -7q-26 -4 -45 13q-8 6 -15 16t-14.5 24t-10.5 19q-1 2 -8 14.5t-12 17.5q-12 14 -30.5 19
t-32.5 -5q-5 -5 -7.5 -12.5t0.5 -13.5q20 -28 23 -34q5 -12 11 -32q1 -2 2.5 -9t3 -12.5t3.5 -7.5q3 -3 8 -12.5t6 -10.5q22 -34 27 -48q7 -11 20 -42t24 -46q43 -57 82 -77q19 -12 29 -32l12 -64q22 4 127.5 23.5t115.5 21.5l-12 55v1q4 17 11 43q4 17 4 34q0 1 4 91
q0 8 2 16q2 19 -8.5 42.5t-34.5 25.5z" />
    <glyph glyph-name="weibo" unicode="&#xe62f;" 
d="M512 896q-104 0 -199 -40.5t-163.5 -109t-109 -163.5t-40.5 -199t40.5 -199t109 -163.5t163.5 -109t199 -40.5t199 40.5t163.5 109t109 163.5t40.5 199t-40.5 199t-109 163.5t-163.5 109t-199 40.5zM464 129q-66 0 -126 19.5t-99 59t-39 89.5q0 83 94 177q59 59 120 83
t87 -3q23 -22 7 -73q-4 -11 6 -10q9 1 9 3q49 20 86.5 20t53.5 -21q16 -23 0 -63q-3 -8 -0.5 -11t11.5 -5q31 -10 53.5 -31.5t22.5 -54.5q0 -65 -82 -122t-204 -57zM701 461q7 21 -8 38t-38 13v0q-8 -2 -15.5 2.5t-9 13t3 16t12.5 8.5q47 10 78 -24.5t17 -79.5
q-3 -8 -10.5 -12t-16 -1.5t-12 10t-1.5 16.5v0zM822 421v0q-3 -9 -11.5 -13.5t-18.5 -1.5t-14.5 12t-1.5 18v0q10 29 3.5 60.5t-28 55.5t-52 33.5t-60.5 3.5q-10 -2 -18.5 3.5t-10.5 15t3.5 18t15.5 10.5v0q43 9 85.5 -4t73 -47t39.5 -78.5t-5 -85.5zM640.5 317.5
q-5.5 51.5 -64 82.5t-137 23t-130.5 -49.5t-46.5 -93t64 -82.5t137 -23t130.5 49.5t46.5 93zM531 261q-16 -36 -56 -52.5t-79 -4.5q-37 12 -51.5 44.5t2.5 66.5q16 33 53 49t74 6q39 -10 56 -41.5t1 -67.5zM424.5 298q-12.5 5 -26 0.5t-21 -16t-4.5 -24t15 -18t26.5 -1
t22 17t4 24.5t-16 17zM464 315q-11 4 -17.5 -7t4.5 -16q12 -4 19 7q6 11 -6 16z" />
    <glyph glyph-name="dingdan1" unicode="&#xe69b;" 
d="M864 628h-5h-81v108h-55h-528h-52v-55v-654v-54h43h9h51v-109h635v54v654v56h-17zM431 627h213q11 0 18.5 -8t7.5 -19.5t-7.5 -19.5t-18.5 -8h-213q-11 0 -19 8t-8 19.5t8 19.5t19 8zM272 463h372q11 0 18.5 -8t7.5 -19t-7.5 -19t-18.5 -8h-372q-11 0 -18.5 8t-7.5 19
t7.5 19t18.5 8zM272 300h372q11 0 18.5 -8t7.5 -19.5t-7.5 -19.5t-18.5 -8h-372q-11 0 -18.5 8t-7.5 19.5t7.5 19.5t18.5 8zM246 109q0 11 7.5 19t18.5 8h372q11 0 18.5 -8t7.5 -19t-7.5 -19t-18.5 -8h-372q-11 0 -18.5 8t-7.5 19zM829 -82h-528v55h422h9h46v599h51v-654z
" />
    <glyph glyph-name="shouye" unicode="&#xe604;" 
d="M801 -61h-171q-31 0 -51 28q-14 21 -14 48v170q0 19 -15 33.5t-34 14.5t-34 -14.5t-15 -33.5v-170q0 -27 -15 -48q-19 -28 -50 -28h-183q-31 0 -50 28q-15 21 -15 48v363v3h-83q-12 0 -24.5 7.5t-17.5 20.5q-11 29 21 59l1 1q46 38 209 173q158 130 201 167q23 21 55 21
t55 -21q46 -39 209 -174q159 -132 200 -166h1q31 -28 18 -60q-5 -13 -15.5 -20.5t-22.5 -7.5h-80h-3q-1 -2 -1 -3v-363q0 -29 -23.5 -52.5t-52.5 -23.5zM631 0h170q4 0 9.5 5.5t5.5 9.5v363q0 28 18 46t47 18h36q-44 37 -176 146q-165 136 -211 174l-1 1l-1 1q-5 5 -12 5
q-8 0 -13 -5l-1 -1l-1 -1q-42 -35 -201 -167q-138 -114 -185 -153h47q23 0 38.5 -18t15.5 -46v-363q0 -10 4 -15h181q4 5 4 15v170q0 44 33 77t78 33t77.5 -33t32.5 -77v-170q0 -10 5 -15v0z" />
    <glyph glyph-name="i" unicode="&#xe69a;" 
d="M511 802q-113 0 -208.5 -55.5t-151 -151t-55.5 -208.5t55.5 -208.5t151 -151t208.5 -55.5q112 0 208 55.5t151.5 151t55.5 208.5q0 112 -55.5 208t-151.5 151.5t-208 55.5zM477 127q-50 -4 -53 39q-3 37 26 117l48 141q3 9 -0.5 14.5t-9.5 5.5q-13 -1 -30 -19.5
t-30.5 -36t-19.5 -18.5q-4 0 -7.5 3t-3.5 6q-1 13 43 61q54 56 120 61q32 2 49 -19t1 -74l-49 -155q-12 -34 -11 -45q0 -11 10 -10q14 1 43.5 36.5t33.5 35.5t7.5 -3t3.5 -8q1 -9 -14.5 -29.5t-39 -42.5t-56 -40t-61.5 -20zM591 531q-25 -2 -41 11.5t-18 37.5q-2 25 17 45
t46 22q25 2 42 -11.5t19 -37.5q1 -26 -17.5 -45.5t-47.5 -21.5z" />
    <glyph glyph-name="guankanlubo" unicode="&#xe668;" 
d="M856 729q-41 42 -98 42h-493q-57 0 -98 -42t-41 -101v-322q0 -59 41 -101t98 -42h493q57 0 98 42q40 42 40 101v322q0 59 -40 101zM837 306q0 -34 -23 -58t-56 -24h-493q-33 0 -57 24q-23 24 -23 58v322q0 34 23 57q24 25 57 25h493q33 0 56 -25q23 -23 23 -57v-322z
M867 88h-429v0q-5 17 -17 29v1q-19 20 -47 20t-47 -20v-1q-12 -12 -17 -29h-155q-7 0 -12 -5.5t-5 -13t5 -13t12 -5.5h155q5 -18 17 -30q19 -20 47 -20t47 20q12 13 17 30v0h429q7 0 12.5 5.5t5.5 13t-5.5 13t-12.5 5.5zM396 47q-9 -9 -22 -9t-22 9t-9 22q0 14 9 23t22 9
t22 -9t9 -22.5t-9 -22.5zM649 483l-128 76l-1 1l-128 76q-5 3 -10 3q-7 0 -12.5 -5.5t-5.5 -12.5v-308q0 -4 3 -9q3 -6 10.5 -8t13.5 2l129 76l129 77q4 2 6 7q4 6 2 13.5t-8 11.5zM502 406l-102 -61v244l102 -61h1l102 -61z" />
    <glyph glyph-name="gongshangdaili" unicode="&#xe66e;" 
d="M510 501q11 -135 26 -229q60 -323 267 -320q158 -3 154 158h-116q0 -52 -42 -52q-71 3 -101 222q-15 131 -19 221h259v113h-263v203h-173q0 -143 4 -203h-166v-113h170zM310 -48v647q49 91 79 215h-169q-41 -219 -150 -282v-94q45 11 82 22v-508h158zM716 799
q23 -67 42 -151h135q-15 79 -49 151h-128z" />
    <glyph glyph-name="20151209tubiaolianxizhuanhuan09" unicode="&#xe6a4;" 
d="M671.5 44q-8.5 0 -14.5 6l-319 320q-6 6 -6 14t6 14l319 320q6 6 14.5 6t14.5 -6t6 -14.5t-6 -14.5l-305 -305l305 -305q6 -6 6 -14.5t-6 -14.5t-14.5 -6z" />
    <glyph glyph-name="wo1" unicode="&#xe655;" 
d="M171 20h95q458 1 587 2v15q-8 114 -83.5 200t-187.5 110l-72 15l-72 -16q-111 -25 -185 -111.5t-82 -198.5v-16zM510 383l66 28q46 21 74 63t28 93q0 70 -49.5 120t-120 50t-120 -50t-49.5 -120q0 -51 28.5 -94t75.5 -63zM155 -14q-6 0 -12 10t-6 18v24q8 125 90 219.5
t203 121.5q-56 23 -90.5 74t-34.5 114q0 85 59.5 144.5t144 59.5t144 -59.5t59.5 -144.5q0 -62 -34 -112.5t-89 -74.5q122 -25 205.5 -119.5t92.5 -220.5v-26q0 -7 -6 -16.5t-12 -9.5q-119 -2 -714 -2v0v0z" />
    <glyph glyph-name="ttpodicon" unicode="&#xe72c;" 
d="M511 831q-91 0 -174 -35.5t-143 -95t-95.5 -142.5t-35.5 -174t35.5 -174t95.5 -143t143 -95.5t174 -35.5t174 35.5t143 95.5t95 143t35 174t-35 174t-95 142.5t-143 95t-174 35.5zM816 79q-60 -60 -137 -93q-80 -34 -168 -34t-168 34q-77 33 -137 93t-93 137
q-33 80 -33 168t33 168q33 77 93 137t137 92q80 34 168 34t168 -34q77 -32 137 -92t92 -137q34 -80 34 -168t-34 -168q-32 -77 -92 -137zM434 497h-264q-7 0 -7 -7.5t7 -7.5h264q7 0 7 7.5t-7 7.5zM434 365h-264q-7 0 -7 -7t7 -7h264q7 0 7 7t-7 7zM327 429.5
q0 10.5 -7.5 17.5t-17.5 7t-17.5 -7t-7.5 -17.5t7.5 -17.5t17.5 -7t17.5 7t7.5 17.5zM375 549q8 -2 14 -2q14 0 24 8q19 14 20 45q0 7 -7 7t-8 -7q0 -23 -14 -33q-9 -8 -25 -4q-7 2 -9 -5t5 -9zM851 497h-263q-7 0 -7 -7.5t7 -7.5h263q8 0 8 7.5t-8 7.5zM949.5 607
q7.5 0 7.5 8v209q0 7 -7.5 7t-7.5 -7v-209q0 -8 7.5 -8zM895.5 688q7.5 0 7.5 7v129q0 7 -7.5 7t-7.5 -7v-129q0 -7 7.5 -7zM839.5 750q7.5 0 7.5 7v66q0 8 -7.5 8t-7.5 -8v-66q0 -7 7.5 -7zM851 365h-263q-7 0 -7 -7t7 -7h263q8 0 8 7t-8 7zM745 429.5q0 10.5 -7.5 17.5
t-17.5 7t-17.5 -7t-7.5 -17.5t7.5 -17.5t17.5 -7t17.5 7t7.5 17.5zM609 555q10 -8 23 -8q7 0 15 2q7 2 5 9t-9 5q-16 -4 -25 4q-14 10 -15 33q0 8 -7 7.5t-7 -7.5q1 -31 20 -45zM563 220q-13 -1 -36 14q-13 9 -23 15q-26 15 -42 0q-12 -13 -12 -39v-1q3 -24 32 -36.5
t62 -12.5h7q21 1 31 10.5t9.5 21.5t-9 20.5t-19.5 7.5zM550 174q-27 -1 -55 8.5t-30 28.5q0 19 8 27q7 8 24 -2q9 -5 22 -14q27 -18 45 -17h1q4 0 7.5 -4t4.5 -9q0 -16 -27 -18z" />
    <glyph glyph-name="dianjichakan" unicode="&#xe623;" 
d="M352 263h102v-18h-102v18zM348 536h107v-38h-107v38zM415 331h-1v-52h29l31 2q-36 17 -59 50zM393 279v52q-23 -30 -55 -50l22 -2h33zM352 230h101v-18h-101v18zM616 228h94v-14h-94v14zM616 256h94v-14h-94v14zM529 762q-103 0 -190 -50.5t-137.5 -137.5t-50.5 -190
t50.5 -190t137.5 -137.5t190 -50.5t190 50.5t137.5 137.5t50.5 190t-50.5 190t-137.5 137.5t-190 50.5zM325 556q17 -2 46 -2h13v63q0 13 -1 19q22 0 29 -3q0 -1 -1 -3q-4 -7 -4 -15v-14h45q42 0 48 2v-22q-11 2 -48 2h-46v-29h25q41 0 48 2q-2 -5 -2 -39q-1 -30 2 -40
q-15 3 -47 2h-54q-45 0 -54 -2q3 4 3 39q0 32 -2 40zM513 422l-25 -10q-9 25 -29 49l22 8q19 -25 32 -47zM447 418l-25 -2q-4 25 -13 42l22 4q11 -23 16 -44zM391 416l-24 -3q-1 21 -9 44l24 2q6 -24 9 -43zM317 468q24 -9 24 -10t-2 -3q-5 -4 -7 -9q-18 -33 -22 -37
q-12 7 -21 9q21 19 28 50zM507 160q-17 2 -42 2h-126q-19 0 -39 -2v20q20 -2 39 -2h125q25 1 43 2v-20zM503 265q-8 2 -28 15l-1 -34v-23q0 -6 1 -17v-12q-14 2 -37 2h-73q-16 0 -34 -2q0 3 1 13q1 11 1 14v34l-1 21l-24 -16q-7 9 -19 19q44 11 82 52h-48q-15 0 -21 -2v21
q7 -2 21 -2h71q0 19 -2 28q26 -2 25 -4q0 -1 -1 -4q-1 -4 -1 -7q-1 -5 -1 -13h70q8 0 23 3v-21q-10 2 -23 2h-51q41 -41 88 -45q-11 -8 -18 -22zM545 539q17 -2 45 -2h52v37h-29q-35 0 -47 -2v22q7 -3 47 -3h29v23q0 13 -2 18q27 -2 26 -4q0 -1 -1 -2q-4 -6 -4 -13v-22h31
q40 0 51 3v-23q-10 3 -51 3h-30v-37h56q32 0 43 3v-22q-11 2 -42 1h-57v-74h50v38q0 8 -1 18q24 0 25 -3l-1 -1q-3 -6 -3 -12v-37q0 -32 2 -35h-24q1 3 1 16l-89 -2q-29 0 -51 -2q3 5 3 49q0 19 -1 30h5q21 -2 20 -3q0 -1 -1 -3q-3 -6 -3 -11v-42h48v74h-53q-36 1 -44 -1v21
zM766 284h-14q-18 1 -30 1h-94q-4 -6 -9 -12q3 -1 28 -1h40h43h2q1 -1 0 -3q-2 -17 -2 -34v-39q0 -25 2 -41h-24q2 7 2 19h-94q0 -9 1 -19h-23q0 2 1 11q1 25 1 33v47q-16 -19 -43 -36q-5 9 -16 17q47 24 70 58h-29h-34v19h12q15 -1 22 -1h37q2 4 5 9q2 4 3 5h-16
q-36 0 -36 -1v19h14q16 -1 23 -1h21q1 3 4 16h-28q-26 -1 -40 -1l-11 21q35 -5 86 -4q51 2 94 10q15 -22 14 -25h-11q-41 1 -84 0q-4 -11 -5 -17h43q6 0 24 1h16v-20q-17 2 -40 2h-48q-2 -5 -6 -14h85q31 1 44 2v-21zM616 200h94v-15h-94v15z" />
    <glyph glyph-name="shenheshibai" unicode="&#xe649;" 
d="M858 94l1 -1q18 -18 52.5 -53t52.5 -53q1 -1 4.5 -5t5.5 -6t6 -6.5t4.5 -7.5t2 -9t-1.5 -10q-3 -10 -6 -13q-7 -9 -21.5 -10t-24.5 6q-40 41 -121 122l-1 -1q-1 -1 -2.5 -2t-3 -3t-2.5 -3q-3 -4 -10 -10.5t-10 -10.5l-19 -19t-23.5 -23t-19.5 -20t-29 -30q-12 -7 -25 -4
t-20 12q-1 2 -3 11q0 8 -1 12t3 10t5.5 8.5t7 7t7.5 6.5q12 12 36 36.5t36 36.5q15 15 21 22q8 8 8 9q-2 1 -3.5 2.5t-3 3.5t-2.5 3l-20 21q-43 43 -63 64q-2 2 -12.5 11t-15.5 16t-7 15q-3 10 3 19t13 12q2 1 6 1.5t5 1.5q7 0 13 -1t11.5 -5t7.5 -5t8.5 -8t7.5 -7
q12 -12 35.5 -35t34.5 -35q2 -1 9 -9t12.5 -13.5t8.5 -6.5q20 20 59.5 60t59.5 60q12 7 25.5 4.5t20.5 -11.5q5 -7 5 -19t-5 -19q-42 -39 -122 -119v0zM299 234h201q12 0 20 -8t8 -20t-8.5 -20.5t-19.5 -8.5h-201q-12 0 -20.5 8.5t-8.5 20t8.5 20t20.5 8.5v0zM673 579h-374
q-12 0 -20.5 8.5t-8.5 20t8.5 20t20.5 8.5h374q12 0 20 -8.5t8 -20t-8.5 -20t-19.5 -8.5v0zM673 378h-374q-12 0 -20.5 8.5t-8.5 20t8.5 20t20.5 8.5h374q12 0 20 -8.5t8 -20t-8.5 -20t-19.5 -8.5v0zM902 292q-11 0 -20 8.5t-9 20.5v2h-1v398q0 40 -7 49q-1 3 -3.5 4.5t-6 3
t-6.5 2t-8 0.5h-8h-9h-9h-599h-59h-3h-9h-9h-8t-7.5 -0.5t-6 -2t-6 -3t-4.5 -4.5t-3.5 -7t-2 -10t-0.5 -9.5v-11.5v-11v-115v-417v-117v-10v-10t0.5 -9.5t1 -10t1.5 -7.5t3 -7t5 -5q10 -7 39 -7h409v-1h1q12 0 20.5 -8.5t8.5 -20.5t-8.5 -20t-20.5 -8q-6 0 -12 3h-399
q-26 0 -32 2q-48 14 -67 51q-7 19 -7 83v144v380v109q0 46 5 59q16 37 47 51q3 1 9 3.5t9 3.5h5t5 2h35h54h637q2 -2 5.5 -2h4.5q7 -2 20 -7q30 -13 47 -51q6 -15 6 -59v-390q2 -6 2 -9q-1 -12 -9.5 -20.5t-20.5 -8.5v0zM902 292z" />
    <glyph glyph-name="yewuyeicon05" unicode="&#xe739;" 
d="M173 501q-5 0 -9.5 -3.5t-5 -9.5t3.5 -10t9 -5h20q22 0 46 2.5t56 9.5t61 23.5t47 40.5q8 11 -3 19.5t-20 -3.5q-15 -20 -42 -34.5t-53 -19.5t-52.5 -8.5t-40.5 -2t-17 0.5v0zM173 501zM838 473q6 1 10 5t3.5 10t-5 9.5t-9.5 3.5q-6 0 -17.5 -0.5t-40 2t-53.5 8t-52 20
t-43 34.5q-8 12 -19 3.5t-3 -19.5q18 -24 47 -40.5t61 -23.5t55.5 -9.5t46.5 -2.5h19v0zM838 473zM720 625v100l57 -100h14h15v139h-14h-13v-97l-56 97h-15h-15v-139h14h13zM720 625zM942 747q-18 20 -48.5 20t-48.5 -19.5t-18 -53.5q0 -33 18 -52.5t48.5 -19.5t48.5 19
t18 53t-18 53v0zM921 659q-10 -13 -27.5 -13t-27.5 12.5t-10 35.5t10 36t27.5 13t27.5 -13t10 -36t-10 -35v0zM921 659zM925 590q-5 0 -9 -4t-4 -9v-397q0 -11 -8 -19t-19 -9q-2 4 -4 9h-0.5t-0.5 1q-2 3 -4 5l-0.5 0.5l-1 1l-0.5 0.5v1q-3 2 -6 5q-2 1 -3 2q-3 1 -6 3l-1 1
t-2 1h-0.5h-0.5l-12 6q-2 0 -6 1l-14 4h-2.5h-1.5q-8 1 -16 1h-1.5h-2.5q-9 0 -20 -1h-1.5h-0.5q-51 -7 -101 -40l-0.5 -0.5l-0.5 -0.5h-304l-1.5 1.5t-1.5 0.5q-10 7 -21 13q-1 0 -2 1t-2 1q-11 6 -23 11q-1 0 -2.5 0.5l-1.5 0.5q-23 9 -45 12h-5q-10 1 -19 1h-5
q-7 0 -14 -1h-2h-3q-7 -1 -14 -4q-4 -1 -5 -1q-8 -3 -13 -6h-0.5h-0.5q-1 0 -2 -0.5t-1 -1.5l-6 -3l-2 -2q-4 -3 -7 -6h-0.5t-0.5 -0.5t-0.5 -1l-0.5 -0.5q-2 -2 -4 -6h-0.5h-0.5q-2 -5 -4 -9h-41q-12 0 -20 8.5t-8 19.5v526q0 11 8 19.5t20 8.5h509q5 0 9 4t4 10t-4 10
t-9 4h-509q-23 0 -39.5 -16.5t-16.5 -39.5v-526q0 -23 16.5 -39t39.5 -16h41q4 -13 14 -23q3 -3 6 -4q80 -20 91 -51q4 -13 -4 -24t2.5 -19.5t19.5 2.5q17 22 8 49q-15 45 -106 69q-6 8 -6 14t5 11q3 3 7 6q2 1 3 2q2 1 9 3q0 1 1.5 1.5t2.5 0.5q17 5 37 4h3h2q9 -1 16 -2
q3 0 10 -2q6 -1 13 -4q7 -2 12 -4q5 -1 14 -5q9 -5 12 -6q9 -5 20 -13q1 0 3 -1t3 -2v0q27 -19 46 -37t27 -29t13 -21t3.5 -13.5t-0.5 -5.5v0q-7 -12 6 -18q3 -2 6 -2q8 0 12 7q2 4 3 9t-0.5 16t-7.5 23.5t-21 30.5t-39 38h232q-24 -20 -39.5 -38t-21.5 -30.5t-7.5 -23.5
t0 -16t3.5 -9q4 -7 12 -7q3 0 6 1q13 7 6 18q2 2 0 5t2.5 13t12 21.5t27.5 30t48 38.5q11 8 26 15q1 1 10 5q8 4 15 7q5 2 11 3q7 3 14 4q8 2 9 2l16 2h2.5t3.5 1q20 0 36 -5q2 0 4 -1q1 -1 2 -1q6 -2 8 -3l2 -2q5 -3 8 -6q5 -5 5 -11t-7 -14q-90 -24 -105 -69q-9 -27 8 -49
q8 -10 19 -2t3 19t-4 24q11 31 90 51q4 1 7 4q10 11 14 23q23 0 38.5 16.5t15.5 38.5v397q0 5 -4 9t-10 4v0zM925 590zM381 585q10 0 20 2q5 1 8.5 5.5t2.5 10t-6 9t-10 2.5q-28 -5 -45 5q-12 7 -19 -5t5 -19q17 -10 44 -10v0zM381 585zM611 608q-6 1 -10.5 -2t-6 -8.5
t1.5 -10t9 -6.5q6 -1 14 -1q25 0 49 12q12 7 5.5 19t-18.5 6q-25 -13 -44 -9v0zM611 608zM502 284q29 0 59.5 6.5t51 14.5t39.5 19t25.5 15.5t10.5 7.5q11 9 2.5 19.5t-19.5 2.5q-7 -6 -23 -16t-60 -25.5t-86 -15.5q-27 0 -52 5.5t-41 13t-30 17t-18.5 13.5t-6.5 6
q-9 10 -19 1t-1 -19q3 -4 8 -8.5t21 -15.5t34 -19.5t46 -15t59 -6.5v0zM502 284z" />
    <glyph glyph-name="follow-r" unicode="&#xe658;" 
d="M672 392q-52 0 -88.5 -36.5t-36.5 -88.5t36.5 -88.5t88.5 -36.5t88.5 36.5t36.5 88.5t-36.5 88.5t-88.5 36.5zM736 245h-41v-42q0 -9 -6.5 -16t-16 -7t-16 7t-6.5 16v42h-42q-9 0 -15.5 6.5t-6.5 16t6.5 16t15.5 6.5h42v41q0 10 6.5 16.5t16 6.5t16 -6.5t6.5 -16.5v-41
h41q9 0 16 -6.5t7 -16t-7 -16t-16 -6.5zM819 844h-614q-64 0 -108.5 -44.5t-44.5 -108.5v-614q0 -64 44.5 -108.5t108.5 -44.5h614q64 0 108.5 44.5t44.5 108.5v614q0 64 -44.5 108.5t-108.5 44.5zM538 90q-11 -8 -23 -16q-2 -1 -4 -1v-1h-1h-1v0q-3 -1 -7 -1q-6 0 -11 3
q-143 89 -226 201.5t-84 217.5q0 107 85 160q38 24 75 30t67 -3t53 -24t42 -35q18 20 41 35t53 24t67 3t75 -30q51 -32 72 -87t7 -124q-1 -8 -7.5 -13t-14.5 -5h-4q-9 2 -14.5 9.5t-3.5 17.5q11 55 -4.5 97t-54.5 67q-33 20 -65 23t-53 -5t-40 -24t-25.5 -24t-9.5 -14h-1
q0 -1 -0.5 -1.5l-0.5 -0.5l-0.5 -0.5l-1 -1l-0.5 -0.5l-1 -1l-0.5 -0.5l-0.5 -0.5l-1 -1v0h-1l-1 -1h-1l-1 -1h-1h-1l-1 -1h-1h-1v0h-2v0h-2v0q-4 0 -8 2h-1h-1l-1 1v0h-0.5t-0.5 0.5v0.5h-1q0 1 -1 1v0q-1 1 -2 1v1l-1 1v0q-1 1 -1 2h-1q-3 6 -9.5 14t-25.5 24t-40 24
t-53 5t-65 -23q-63 -40 -63 -122q0 -38 15 -81.5t46 -92t86.5 -100.5t128.5 -99q5 4 11 7q7 6 16.5 4t14.5 -10t3 -17t-10 -14zM672.5 97q-70.5 0 -120.5 50t-50 120.5t50 120.5t120.5 50t120.5 -50t50 -120.5t-50 -120.5t-120.5 -50z" />
    <glyph glyph-name="shequ1xiangqian20" unicode="&#xe66f;" 
d="M512 896q-104 0 -199 -40.5t-163.5 -109t-109 -163.5t-40.5 -199q0 -108 43 -206q2 -3 2 -4v0q20 -44 47 -83v-150h163q46 -26 96 -43q78 -26 161 -26q157 0 285 86.5t187 226.5q40 95 40 199t-40.5 199t-109 163.5t-163.5 109t-199 40.5zM697 599q17 -37 25 -77h-70
q-9 43 -21 77h66zM424 166h-81v260q-20 -6 -43 -12v48q56 33 77 145h87q-15 -64 -40 -110v-331zM675 166q-105 -2 -136 164q-8 47 -14 117h-86v58h85q-2 30 -2 103h88v-103h135v-58h-133q2 -46 10 -113q15 -112 51 -114q22 0 22 27h59q2 -83 -79 -81z" />
    <glyph glyph-name="tongxueline" unicode="&#xe6b6;" 
d="M825 336q71 74 71 176v128q0 106 -75 181t-181 75q-27 0 -57 -7q66 -53 97 -128q39 -13 63.5 -46t24.5 -75v-128q0 -42 -24.5 -75t-63.5 -46q-9 -21 -19 -39q72 -56 118 -136q92 -56 117 -152q0 -27 -18.5 -45.5t-45.5 -18.5h-9q-20 -76 -79 -128h88q79 0 135.5 56.5
t56.5 135.5q-14 86 -68 157.5t-131 114.5zM569 336q71 74 71 176v128q0 106 -75 181t-181 75t-181 -75t-75 -181v-128q0 -102 71 -176q-77 -43 -131 -114.5t-68 -157.5q0 -79 56 -135.5t136 -56.5h384q79 0 135.5 56.5t56.5 135.5q-14 86 -68 157.5t-131 114.5zM256 640
q0 53 37.5 90.5t90.5 37.5t90.5 -37.5t37.5 -90.5v-128q0 -53 -37.5 -90.5t-90.5 -37.5t-90.5 37.5t-37.5 90.5v128zM576 0h-384q-27 0 -45.5 18.5t-18.5 45.5q21 83 94 137.5t162 54.5t162 -54.5t94 -137.5q0 -27 -18.5 -45.5t-45.5 -18.5z" />
    <glyph glyph-name="dianhua" unicode="&#xe6c9;" 
d="M699 197q-70 68 -125 68q-25 0 -44 -13l-30 -23q-36 8 -71.5 38t-61.5 75.5t-34.5 91t2.5 80.5l35 15q33 15 43.5 56.5t-3.5 104.5q-6 29 -17.5 60t-29.5 62.5t-44 52t-55 20.5q-12 0 -24 -3l-59 -19q-37 -13 -63.5 -42.5t-34.5 -68.5q-24 -113 4.5 -247t103.5 -264.5
t177 -222t212 -127.5q23 -7 46 -7q57 0 99 38l46 41q43 39 15 111q-23 62 -87 123zM737 0l-46 -41q-27 -26 -65 -26q-16 0 -30 5q-102 34 -196.5 119.5t-165.5 208t-98 247t-5 229.5q6 26 23.5 45.5t42.5 27.5l58 19q5 2 9 2q28 0 56.5 -48.5t41.5 -107.5q9 -42 5.5 -70.5
t-17.5 -34.5l-53 -24l-1 -3q-22 -46 -14.5 -108t42.5 -122.5t85 -98t101 -41.5l3 -1l47 34q5 4 14 4q34 0 90 -53t76 -105q15 -41 -3 -57zM906 624q-41 81 -109 139t-154 86q-4 1 -7 1q-19 0 -24 -17q-3 -10 1.5 -19t14.5 -12q77 -25 137.5 -77t97 -124t42.5 -151.5
t-19 -155.5q-3 -10 1.5 -19t14.5 -13q3 -1 7 -1q19 0 24 17q28 87 21 176t-48 170zM597 706q-4 2 -8 2q-18 0 -24 -18q-3 -9 1.5 -18.5t14.5 -12.5q100 -32 147 -125.5t15 -193.5q-3 -9 1.5 -18.5t14.5 -12.5q4 -1 8 -1q18 0 23 17q39 119 -18 231q-27 54 -72.5 92.5
t-102.5 57.5zM535 516q40 -13 59 -51t6 -78q-3 -10 1.5 -19t14.5 -12q4 -2 8 -2q18 0 23 18q20 59 -8.5 115.5t-88.5 75.5q-4 2 -8 2q-18 0 -23 -17q-4 -10 1 -19.5t15 -12.5z" />
    <glyph glyph-name="VIP" unicode="&#xe6af;" 
d="M798 896h-572q-94 0 -160 -66t-66 -160v-572q0 -94 66 -160t160 -66h572q94 0 160 66t66 160v572q0 94 -66 160t-160 66zM728 586h-10q-15 0 -23.5 -11.5t-15.5 -31.5l-146 -422h-47l-164 465h-26v13h198v-13h-28l104 -308h1l85 243q6 22 6 39q0 15 -8 20.5t-26 5.5h-7
v13h107v-13v0z" />
    <glyph glyph-name="vip1" unicode="&#xe78d;" 
d="M960 640h-896q-26 0 -45 -19t-19 -45v-384q0 -26 19 -45t45 -19h896q26 0 45 19t19 45v384q0 26 -19 45t-45 19zM328 193h-98q-37 97 -147 387h94q7 -21 19 -56t34 -100.5t38 -115.5q6 -19 13 -38q8 26 12 40q59 186 86 270h94q-36 -97 -145 -387zM589 193h-90v242v145
h90v-387zM951 454q0 -125 -154 -125h-65v-136h-87v242v145h161q140 -4 145 -123v-3zM790 511h-58v-115h58q68 2 70 58q-2 56 -70 57z" />
    <glyph glyph-name="erweima" unicode="&#xe605;" 
d="M63 412v400h409v-400h-409zM398 739h-260v-255h260v255zM64 337h408v-400h-408v400zM398 265h-260v-256h260v256zM549 412v400h409v-400h-409zM623 740v-256h260v256h-260zM622 -63h-73v400h223v-12q0 -133 -1 -159q0 -7 2.5 -9.5t9.5 -2.5q7 1 91 1h10v182h74v-254h-260
v182h-71q-3 0 -5 -5v-8v-302v-13v0zM698 -63v107h110v-107h-110zM958 -63h-110v107h110v-107zM213 559v107h111v-32v-68t-7 -9q-1 0 -101 1zM213 84v107h25h77q9 0 9 -6v-101h-111zM699 666h109v-109h-20h-81q-9 0 -9 8v96z" />
    <glyph glyph-name="qq" unicode="&#xe620;" 
d="M510.5 863q98.5 0 188.5 -38t154.5 -103t103 -154.5t38.5 -188t-38.5 -188t-103 -154.5t-154.5 -103.5t-188.5 -38.5t-188 38.5t-154 103.5t-103 154.5t-38.5 188t38.5 188t103 154.5t154 103t188 38zM784 231q6 5 10 15.5t6 33.5t-7 54q-8 28 -20.5 48.5t-21 29.5
t-8.5 14q3 37 0 47t-8 14.5t-8 5.5t-3 3q0 96 -62.5 164t-150.5 68t-150.5 -68t-62.5 -164q0 -5 -6 -8.5t-10 -14.5q-2 -6 -1.5 -8.5t1 -14t0.5 -24.5q-1 -4 -11 -18t-23.5 -35t-19.5 -39q-12 -31 -11.5 -61t17.5 -42q15 -11 38 34q8 12 10 12q1 -7 4 -14q13 -34 38 -64
q2 -1 -4 -5t-16.5 -13t-17.5 -21q-14 -24 7.5 -50t74.5 -26q29 0 51.5 4t35.5 9t22 10.5t12.5 9l3.5 3.5q2 -1 8 -0.5t8 0.5q4 0 8 -0.5t7 0.5l16.5 -10.5t45.5 -19.5t59 -6q24 3 41.5 7.5t28 8.5t16 11.5t8 12t1 13t-2.5 12t-4 11.5q-2 7 -7.5 13.5t-11.5 11t-11 8t-8 5
l-3 1.5q5 6 9.5 11.5t7.5 9.5t6 10.5t4.5 9t4 9.5t3 8.5t3.5 10t3 9.5q2 5 10 -9q22 -38 33 -39q4 -1 8 2z" />
    <glyph glyph-name="gouwuchetianjia" unicode="&#xe640;" 
d="M803 0zM739 0q0 26 19 45t45.5 19t45 -19t18.5 -45t-18.5 -45t-45 -19t-45.5 19t-19 45zM346 0zM282 0q0 26 18.5 45t45 19t45.5 -19t19 -45t-19 -45t-45.5 -19t-45 19t-18.5 45zM774 778q-81 0 -139.5 -58.5t-58.5 -140t58.5 -140t140 -58.5t140 58.5t58.5 139.5
q2 82 -56.5 140.5t-142.5 58.5zM774 432q-62 0 -106 43.5t-44 103.5q0 62 44 104.5t106 42.5q63 0 107 -43.5t44 -103.5q0 -62 -44 -104.5t-107 -42.5zM368 246q0 -9 8 -15.5t18 -6.5l492 42q10 0 16.5 7.5t6.5 17.5t-8 16.5t-18 6.5l-493 -42q-10 0 -17 -7t-5 -19zM845 605
h-48v48q0 10 -7 17.5t-19 7.5q-25 0 -25 -25v-48h-48q-11 0 -18.5 -7t-7.5 -19q0 -10 7 -17.5t19 -7.5h48v-48q0 -11 7 -18.5t18 -7.5q26 0 26 26v48h48q10 0 17.5 7t7.5 18q-2 11 -9 18.5t-16 7.5zM330 704h188q11 0 18.5 7t7.5 19q0 10 -7 17.5t-19 7.5h-188
q-11 0 -18.5 -7t-7.5 -18.5t7.5 -18.5t18.5 -7zM886 154h-524q-21 0 -40 15.5t-24 35.5l-93 547q-7 39 -39.5 66t-72.5 27h-23q-10 0 -17.5 -7t-7.5 -19q0 -10 7 -17.5t18 -7.5h23q22 0 40.5 -15t23.5 -37l93 -547q7 -39 39 -66t73 -27h524q11 0 18.5 7.5t7.5 18.5
q0 10 -8 18t-18 8z" />
    <glyph glyph-name="lianjie" unicode="&#xe646;" 
d="M589 422l-10 7q-7 7 -17 5.5t-15 -8.5q-7 -8 -5.5 -17.5t8.5 -14.5l10 -7q14 -12 14.5 -29.5t-11.5 -34.5l-13 -16q-7 -7 -5.5 -17t9.5 -15q7 -7 17 -5.5t15 8.5l12 16q25 29 22 67t-31 61zM448 176l-141 -176q-12 -14 -30.5 -16.5t-30.5 6.5l-137 112q-14 12 -15 30
t12 34l265 327q12 14 30.5 16.5t30.5 -7.5l13 -9q7 -7 17 -5.5t15 8.5q7 7 5.5 17t-8.5 15l-13 10q-29 23 -66.5 18t-61.5 -34l-266 -327q-24 -28 -21.5 -66t31.5 -62l137 -112q30 -23 67 -18t61 34l141 176q7 8 5.5 17.5t-8.5 14.5q-14 15 -32 -3zM944 621l-128 105
q-31 24 -69 20.5t-62 -32.5l-263 -327q-23 -31 -19.5 -69t32.5 -62l128 -106q32 -23 69.5 -19.5t61.5 32.5l263 327q26 31 22 69t-35 62zM922 518l-263 -326q-12 -14 -31 -16t-36 10l-128 105q-14 12 -16 31.5t10 35.5l262 327q12 14 31 16t36 -10l128 -105q15 -12 17 -31.5
t-10 -36.5z" />
    <glyph glyph-name="saoyisao" unicode="&#xe64a;" 
d="M864 848h-698q-35 0 -59 -26.5t-24 -63.5v-208q0 -10 6.5 -17.5t16.5 -7.5q9 0 15.5 7t6.5 18v208q0 18 11 30t27 12h698q17 0 27.5 -12t10.5 -30v-208q0 -10 6.5 -17.5t16.5 -7.5t16 7t6 18v208q0 36 -24.5 63t-58.5 27zM925 214q-10 0 -16.5 -6.5t-6.5 -18.5v-179
q0 -18 -10.5 -30t-27.5 -12h-698q-16 0 -27 12t-11 30v182q0 10 -6.5 18t-15.5 8q-10 0 -16.5 -7t-6.5 -19v-179q0 -38 24.5 -64t58.5 -26h698q35 0 59 26.5t24 63.5v179q0 10 -6.5 16t-15.5 6zM922 352q9 0 15.5 6.5t6.5 16t-6.5 16t-15.5 6.5h-820q-9 0 -15.5 -6.5
t-6.5 -16t6.5 -16t15.5 -6.5h820z" />
    <glyph glyph-name="shengyin" unicode="&#xe64c;" 
d="M784 525q-16 25 -45 54q-7 8 -19 7t-19 -10q-8 -7 -7 -19t10 -19l10 -10q16 -16 25 -35q94 -142 -38 -279q-7 -7 -7 -19t7 -19t19 -7t19 7q55 59 76.5 121t12.5 117.5t-44 110.5zM896 650q-16 25 -54 70q-5 6 -9.5 10.5t-9.5 9t-7 6.5q-7 7 -19 6.5t-19 -10.5
q-8 -7 -7.5 -19t10.5 -19q0 -1 4.5 -4t9 -8t8.5 -10q32 -39 48 -64q175 -265 -70 -519q-7 -7 -7 -19t7 -19t19 -7t19 7q95 99 132.5 203.5t21.5 198.5t-77 187zM483 810l-217 -186h-109q-44 0 -76.5 -32t-32.5 -77v-272q0 -45 31.5 -77t77.5 -32h96l230 -182
q41 -31 73.5 -15t32.5 66v755q0 53 -33.5 69t-72.5 -17zM534 6q0 -16 -3.5 -17.5t-15.5 8.5l-237 185q-6 7 -16 7h-105q-22 0 -38.5 16.5t-16.5 37.5v272q0 22 16.5 38.5t38.5 16.5h118q10 0 16 6l224 192q12 10 14 9t2 -15v-756h3z" />
    <glyph glyph-name="shijian" unicode="&#xe64d;" 
d="M512 832q-94 0 -179.5 -36.5t-147 -98.5t-98 -147.5t-36.5 -178.5t37 -178t98.5 -147t147 -99t178.5 -37t178.5 37t147 99t98.5 147t37 178t-36.5 178.5t-98 147.5t-147 98.5t-179.5 36.5zM512 -45q-112 0 -207 55.5t-150.5 150.5t-55.5 207t55.5 207t150.5 150.5
t207 55.5t207 -55.5t150.5 -150.5t55.5 -207t-55 -207t-150 -150.5t-208 -55.5zM810 352h-279v282q0 9 -6.5 15.5t-16 6.5t-16 -6.5t-6.5 -15.5v-308q0 -9 6.5 -15.5t16.5 -6.5h3h298q9 0 15.5 6.5t6.5 15.5q0 12 -6.5 19t-15.5 7z" />
    <glyph glyph-name="shuaxin" unicode="&#xe650;" 
d="M960 266q-20 5 -32 -13q-28 -76 -85.5 -133.5t-131 -87t-158.5 -34t-169 27.5q-83 29 -147 84.5t-98.5 124.5t-42.5 147.5t22 155.5q29 75 86.5 132.5t131 87.5t158.5 34t168 -27q70 -24 128 -68.5t96 -104.5h-92q-10 0 -18 -6.5t-8 -15.5q0 -10 7 -16.5t19 -6.5h153
q10 0 18 6.5t8 16.5v140q0 10 -7 16.5t-19 6.5q-10 0 -17.5 -6.5t-7.5 -16.5v-89q-88 131 -247 189q-93 33 -187.5 28t-176 -38.5t-146.5 -98t-98 -147.5q-25 -68 -26.5 -139.5t21 -137.5t63.5 -123.5t102 -102.5t135 -70q93 -34 187.5 -28.5t176 39t146.5 97.5t98 148
q6 7 3 15.5t-13 13.5z" />
    <glyph glyph-name="wancheng" unicode="&#xe654;" 
d="M486 266q-14 -15 -33.5 -15.5t-33.5 11.5l-137 132l-32 -36l137 -131q29 -26 67.5 -25.5t67.5 28.5l281 298l-35 32zM512 845q-93 0 -178.5 -36.5t-147 -98t-98.5 -147t-37 -179.5t36.5 -179.5t98 -147t147 -98t179.5 -36.5t179.5 36.5t147 98t98 147t36.5 179.5
t-37 179.5t-98.5 147t-147 98t-178.5 36.5zM512 -29q-112 0 -207 55.5t-150.5 150.5t-55.5 207t55.5 207t150.5 150.5t207 55.5t207 -55.5t150.5 -150.5t55.5 -207t-55.5 -207t-150.5 -150.5t-207 -55.5z" />
    <glyph glyph-name="wodehongbao" unicode="&#xe657;" 
d="M866 794v0v0q-31 40 -78 40h-574q-42 0 -70.5 -28.5t-28.5 -70.5v-699q0 -41 28.5 -70t70.5 -29h574q42 0 70.5 29t28.5 70v699q0 37 -21 59zM788 784q9 0 13 -3l-292 -186l-314 186q7 3 19 3h574zM838 33q0 -21 -14.5 -35t-35.5 -14h-574q-21 0 -35.5 14t-14.5 35v699v6
l332 -196q11 -7 25 0l317 202q0 -2 1.5 -6.5t1.5 -5.5v-699h-3zM639 334q10 0 17.5 8t7.5 17t-7.5 17t-17.5 8h-84l72 71q7 7 7 17.5t-7 17t-17 6.5t-17 -6l-81 -81h-3v0l-78 77q-7 7 -17 7t-17 -7t-7 -17t7 -17l68 -68h-74q-9 0 -17 -8t-8 -17t8 -17t17 -8h93v-74h-93
q-9 0 -17 -8t-8 -17t8 -17t17 -8h93v-90q0 -9 8 -17t17 -8t17 8t8 17v90h108q10 0 17.5 8t7.5 17t-7.5 17t-17.5 8h-108v74h105z" />
    <glyph glyph-name="yanjing" unicode="&#xe661;" 
d="M515 672q-215 0 -399 -194q-61 -64 -94 -120q5 -6 13.5 -17t36 -42.5t57.5 -60t75.5 -64t91.5 -60.5t104 -42.5t115 -17.5t115 17t105 44t91 59t76 64.5t56.5 59.5t37.5 44l12 16q-4 7 -11.5 18.5t-32.5 44t-53 62t-72.5 65.5t-91 62t-108 44t-124.5 18zM832 243
q-167 -141 -320 -141q-159 0 -320 141q-70 64 -99 99q-3 4 -8 10t-8 10q1 3 6 9.5t7 9.5q38 53 92 102q160 144 330 144t330 -144q35 -32 92 -102q2 -3 7 -9.5t6 -9.5q-3 -7 -16 -20q-59 -66 -99 -99zM512 550q-71 0 -120.5 -49.5t-49.5 -119.5q0 -72 50 -121t120 -49
q71 0 120.5 50t49.5 120q0 69 -50 119t-120 50zM512 256q-50 0 -86 35.5t-36 86t36 86t86 35.5t86 -35.5t36 -85.5q0 -49 -36 -85.5t-86 -36.5z" />
    <glyph glyph-name="yijianfankui" unicode="&#xe662;" 
d="M874 621q-12 0 -19 -8t-7 -18v-550q0 -22 -15 -36.5t-36 -14.5h-643q-22 0 -37 14.5t-15 36.5v646q0 22 15 36.5t37 14.5h521q12 0 19 8t7 18t-8 18t-18 8h-521q-43 0 -74.5 -31t-31.5 -72v-646q0 -43 31 -73t75 -30h643q43 0 74 30t31 73v550q-5 26 -28 26zM483 534
h-278q-12 0 -19 -7.5t-7 -17.5t8 -18t18 -8h278q12 0 19 8t7 18q0 11 -8 18t-18 7zM179 329.5q0 -9.5 8 -17.5t18 -8h461q11 0 18 7.5t7 18.5q0 9 -8 17t-17 8h-461q-10 0 -18 -8t-8 -17.5zM969.5 838.5q-7.5 7.5 -18 7.5t-20.5 -8l-326 -323q-7 -7 -7 -17.5t7 -17.5t18 -7
t20 7l327 323q7 7 7 17.5t-7.5 18z" />
    <glyph glyph-name="huo" unicode="&#xe66c;" 
d="M336 -77q-22 46 -29.5 85.5t-1.5 72.5t18 57.5t32 53.5q23 34 39 71.5t21 58.5l4 20q2 -2 4.5 -5.5t9.5 -17t10 -28t5.5 -37.5t-3.5 -46q47 54 64.5 132.5t8.5 123.5q60 -41 102.5 -106t62 -137.5t13.5 -150.5t-40 -144q79 46 133.5 98.5t80 104t34.5 106t0 104t-26.5 97
t-41 86t-48 70.5t-43.5 52t-31 28q11 -25 14.5 -55.5t-4.5 -61.5t-30 -49q-15 57 -37 106.5t-45.5 83t-48.5 60.5t-47 42.5t-39.5 25.5t-28 14l-10.5 4q27 -173 -172 -420q-3 52 -10 83.5t-29 70.5q-3 -45 -25 -95.5t-48.5 -103.5t-35.5 -95q-22 -111 26.5 -194t191.5 -165
v0z" />
    <glyph glyph-name="dianhuaji" unicode="&#xe663;" 
d="M512 518q-168 0 -305 -105.5t-194 -278.5q-19 -55 19 -102q13 -21 35.5 -26.5t60.5 -5.5h774q25 0 38 1t29.5 8.5t28.5 22.5q37 46 20 109q-58 171 -197.5 274t-308.5 103zM947 70q-4 -4 -9.5 -6t-10 -2t-12 1t-13.5 1h-774q-6 0 -16.5 -2.5t-16.5 -1t-12 9.5
q-14 14 -16 23.5t3 28.5q53 152 175 245.5t267 93.5q147 0 270.5 -91t171.5 -242q8 -21 6 -31t-13 -27zM512 422q-72 0 -125.5 -53.5t-53.5 -125.5t53.5 -125.5t125.5 -53.5t125.5 53.5t53.5 125.5q0 73 -51.5 126t-127.5 53zM512 122q-49 0 -85.5 34.5t-36.5 86.5
q0 51 36 83t86 32q49 0 85.5 -34.5t36.5 -86.5t-34 -83.5t-88 -31.5zM998 666q-101 91 -211 128q-129 52 -268.5 52t-268.5 -52q-120 -40 -218 -128q-32 -32 -32 -52v-64q0 -33 30.5 -67.5t59.5 -34.5h128q19 0 51 32q9 9 14 28.5t5 35.5v77q0 13 6 13q106 43 221 43
t221 -43q6 0 6 -13v-77q0 -16 5.5 -35.5t14.5 -28.5q4 -3 13.5 -10t15 -11t13.5 -7.5t15 -3.5h128q32 0 54.5 33t22.5 69v64q0 26 -26 52zM960 550q0 -10 -4 -24t-9 -14h-128q-3 0 -6 6.5t-7 6.5q-6 13 -6 19v77q0 23 -12.5 41.5t-32.5 28.5q-123 51 -243 51t-243 -51
q-16 -10 -27.5 -29t-11.5 -41v-77q0 -19 -6 -19q-6 -13 -13 -13h-128q-19 26 -19 38v64q0 3 1.5 5t5 4t6.5 4q72 64 198 122q115 48 244 48t249 -48q85 -43 192 -128v-13v-58z" />
    <glyph glyph-name="lajitongxian" unicode="&#xe6b3;" 
d="M864 768h-192v64q0 26 -19 45t-45 19h-192q-26 0 -45 -19t-19 -45v-64h-192q-26 0 -45 -19t-19 -45v-64q0 -26 19 -45t45 -19v-576q0 -53 37.5 -90.5t90.5 -37.5h448q53 0 90.5 37.5t37.5 90.5v576q26 0 45 19t19 45v64q0 26 -19 45t-45 19zM416 800q0 13 9.5 22.5
t22.5 9.5h128q13 0 22.5 -9.5t9.5 -22.5v-32h-192v32zM800 0q0 -26 -19 -45t-45 -19h-448q-26 0 -45 19t-19 45v576h576v-576zM832 640h-640q-13 0 -22.5 9.5t-9.5 22.5t9.5 22.5t22.5 9.5h640q13 0 22.5 -9.5t9.5 -22.5t-9.5 -22.5t-22.5 -9.5zM352 0q13 0 22.5 9.5
t9.5 22.5v384q0 13 -9.5 22.5t-22.5 9.5t-22.5 -9.5t-9.5 -22.5v-384q0 -13 9.5 -22.5t22.5 -9.5zM512 0q13 0 22.5 9.5t9.5 22.5v384q0 13 -9.5 22.5t-22.5 9.5t-22.5 -9.5t-9.5 -22.5v-384q0 -13 9.5 -22.5t22.5 -9.5zM672 0q13 0 22.5 9.5t9.5 22.5v384q0 13 -9.5 22.5
t-22.5 9.5t-22.5 -9.5t-9.5 -22.5v-384q0 -13 9.5 -22.5t22.5 -9.5z" />
    <glyph glyph-name="phone" unicode="&#xe664;" 
d="M717 -62q-69 0 -183 70q-108 66 -211 167h-1l-21 21q-100 104 -167 212q-70 113 -70 183q0 68 63 151q12 16 25.5 31.5t39 34t44.5 18.5q26 0 63 -38q27 -28 58 -72q30 -42 50 -80q23 -44 23 -66q0 -28 -29 -49q-13 -8 -43 -21q-26 -12 -32 -16q5 -22 36 -68
q38 -55 81 -99q45 -44 100 -81q46 -31 67 -36q5 6 16 32q13 30 22 42q20 30 48 30q22 0 66 -24q38 -20 80 -49q44 -31 72 -58q38 -37 38 -63q0 -20 -18 -45t-33.5 -39t-31.5 -26q-84 -62 -152 -62v0v0zM359 212q99 -96 202 -160q102 -62 156 -62q49 0 118 50q29 22 48 44
q14 16 17 25q-5 10 -28.5 32t-64.5 50q-37 26 -70 43q-29 15 -40 17q-4 -2 -9 -10.5t-14 -29.5q-11 -27 -19 -38q-17 -26 -42 -26h-1q-32 0 -99 46q-59 40 -107 86v1q-47 48 -87 107q-45 66 -46 99q-1 25 26 43q11 7 38 19q22 9 30 14t10 8q-1 12 -16 41q-18 32 -44 70
q-28 41 -50 64.5t-31 27.5q-10 -3 -26 -17q-22 -18 -43 -48q-51 -68 -51 -117q0 -55 63 -156q63 -103 160 -202l20 -21v0v0zM672 401q-17 0 -19 16q-8 41 -44 65q-37 24 -81 16q-8 -1 -14.5 3.5t-8 12.5t3 14.5t12.5 7.5q60 11 109 -22q50 -33 61 -91q1 -8 -3.5 -14.5
t-12.5 -7.5h-3v0zM787 450q-16 0 -19 16q-14 80 -84 127q-70 46 -156 31q-8 -1 -14.5 3.5t-8 12.5t3 14.5t12.5 7.5q101 18 184 -37q84 -56 101 -152q2 -8 -3 -14.5t-12 -7.5q-2 -1 -4 -1v0zM942 465q-16 0 -19 15q-12 67 -49 122.5t-95 93.5q-120 80 -266 54q-7 -2 -13.5 3
t-8 12.5t3 14t12.5 8.5q161 28 293 -60q65 -42 106.5 -104.5t54.5 -136.5q1 -8 -3.5 -14.5t-12.5 -7.5h-3v0z" />
    <glyph glyph-name="gantanhao11-copy" unicode="&#xe61d;" 
d="M512 -128q-139 0 -257 68.5t-186.5 186.5t-68.5 257t68.5 257t186.5 186.5t257 68.5t257 -68.5t186.5 -186.5t68.5 -257t-68.5 -257t-186.5 -186.5t-257 -68.5zM512 828q-90 0 -172.5 -35.5t-141.5 -94.5t-94.5 -141.5t-35.5 -172.5t35.5 -172.5t94.5 -141.5t141.5 -94.5
t172.5 -35.5t172.5 35.5t141.5 94.5t94.5 141.5t35.5 172.5t-35.5 172.5t-94.5 141.5t-141.5 94.5t-172.5 35.5zM512 77q-28 0 -48 20t-20 48t20 48t48 20t48 -20t20 -48t-20 -48t-48 -20zM512 282q-14 0 -24 20t-10 48l-34 307q0 28 20 48t48 20t48 -20t20 -48l-34 -307
q0 -28 -10 -48t-24 -20z" />
    <glyph glyph-name="icon-vip" unicode="&#xe670;" 
d="M512 896q-104 0 -199 -40.5t-163.5 -109t-109 -163t-40.5 -198.5t40.5 -199t109 -163.5t163.5 -109t199 -40.5t199 40.5t163.5 109t109 163.5t40.5 199t-40.5 198.5t-109 163t-163.5 109t-199 40.5v0zM512 750q16 0 27 -11t11 -27t-11 -27t-27 -11t-27 11t-11 27t11 27
t27 11v0zM108 386q-15 0 -26.5 11t-11.5 27t11.5 27t27 11t26.5 -11t11 -27t-11 -27t-27 -11v0zM741 35q-101 33 -228 33t-228 -33q-2 17 -8 36q104 35 236 35t235 -35q-6 -19 -7 -36v0zM794 208q-35 -60 -41 -110q-106 35 -240 35t-240 -35q-6 50 -41 110l-86 147
q8 -8 20.5 -21t49 -45t69 -54t70 -35.5t61.5 -3.5q20 8 35.5 33t24 54t15.5 73.5t9.5 77.5t6.5 80.5t6 69.5q0 -14 1.5 -38t8.5 -86.5t16.5 -112.5t28 -95.5t42.5 -55.5t60.5 2.5t71.5 37.5t67 52t51 46.5t19 20.5l-85 -147v0zM932 386q-16 0 -27 11t-11 27t11 27t26.5 11
t26.5 -11t11 -27t-11 -27t-26 -11v0z" />
    <glyph glyph-name="iconfontyouhuiquan" unicode="&#xe628;" 
d="M911 830q-37 0 -361 -19v0h-1q-2 0 -5 -1q-13 -1 -20 -7v-1q-2 -1 -3 -3l-509 -508q-12 -12 -12 -28.5t12 -28.5l350 -350q12 -12 28.5 -12t28.5 12l506 506q2 1 3 3h1q6 11 9 27l22 364q-2 19 -14 31q-13 13 -32 15h-3v0zM391 -54l-317 317l482 481q279 18 329 18
q5 0 7 -1q1 -9 -4 -92.5t-11 -163.5t-6 -78l-3 -4v0l-477 -477v0zM674 581q15 0 25.5 -11t10.5 -26t-10.5 -25.5t-25.5 -10.5t-26 10.5t-11 25.5t11 26t26 11zM674 641q-40 0 -68.5 -28.5t-28.5 -68.5t28.5 -68t68.5 -28t68 28t28 68t-28 68.5t-68 28.5v0z" />
    <glyph glyph-name="iconfontphone" unicode="&#xe634;" 
d="M234 766q9 -8 21 -22q21 -25 45 -61q40 -63 54 -99q-2 -6 -12 -23q-29 -49 -29 -90q0 -38 39 -91q27 -37 68 -79q41 -41 77 -69q52 -40 89 -40q36 0 88 28q25 13 34 15q33 -12 102 -61q58 -42 86 -71q-7 -36 -39 -66q-18 -18 -39 -28q-19 -8 -34 -8q-85 0 -200 67
q-112 66 -221 176q-106 109 -171 221q-31 56 -48 104q-16 47 -16 83q0 12 10 30q12 21 34 42q22 20 44 34q10 5 18 8zM241 833q-26 0 -68 -26.5t-75.5 -70.5t-33.5 -84q0 -62 34 -141t89.5 -157t130.5 -154t153 -134t161 -93.5t152 -35.5q61 0 119 55.5t58 125.5
q0 16 -52.5 60.5t-114 82.5t-83.5 38q-25 0 -65 -21.5t-60 -21.5t-71 44t-94.5 96.5t-43.5 74.5q0 23 20.5 58t20.5 59q0 18 -32.5 77.5t-76.5 113.5t-68 54v0z" />
    <glyph glyph-name="iconfontzhaomingdianzi" unicode="&#xe648;" 
d="M127 418h-91q-14 0 -24.5 -10t-10.5 -24.5t10.5 -24.5t24.5 -10h91q14 0 24 10t10 24.5t-10 24.5t-24 10zM244.5 652.5q10.5 9.5 11 24t-9.5 24.5l-63 66q-10 10 -24 10.5t-24.5 -9.5t-10.5 -24t9 -25l63 -65q10 -11 24 -11t24.5 9.5zM543 -61h-61q-14 0 -23.5 -10
t-9.5 -24t9.5 -23.5t23.5 -9.5h61q14 0 24 9.5t10 23.5t-10 24t-24 10zM988 417h-91q-14 0 -24 -10t-10 -24.5t10 -24.5t24 -10h91q14 0 24 10t10 24.5t-10 24.5t-24 10zM512.5 703q-84.5 0 -157 -44.5t-114 -118.5t-41.5 -160q0 -92 49.5 -168.5t130.5 -114.5v-85
q0 -12 10.5 -21.5t24.5 -9.5h2h2h187q9 0 16 3q21 8 21 28v84q82 38 132 114.5t50 169.5q0 86 -41.5 160t-114 118.5t-157 44.5zM575 153v-80q0 -5 -1 -8v-19h-125v17v10v81q-76 21 -124 83.5t-48 142.5q0 99 69.5 172.5t166 73.5t166 -73.5t69.5 -172.5q0 -80 -49 -143
t-124 -84zM895 767q-10 10 -24 10t-24 -10l-64 -65q-11 -10 -11 -24t10.5 -24t24.5 -10t24 10l64 64q11 10 10.5 24.5t-10.5 24.5zM512 736q14 0 24 10.5t10 24.5v91q0 14 -10 24t-24 10t-24.5 -10t-10.5 -24v-91q0 -14 10.5 -24.5t24.5 -10.5z" />
    <glyph glyph-name="shouji" unicode="&#xe606;" 
d="M287 721v-452h452v452h-452zM344 664h339v-339h-339v339zM429 127q0 -35 24.5 -60t60 -25t60 25t24.5 60t-24.5 60t-60 25t-60 -25t-24.5 -60v0zM485 127q0 12 8.5 20t20 8t20 -8t8.5 -20t-8.5 -20t-20 -8t-20 8.5t-8.5 19.5v0zM287 834q-47 0 -80 -33t-33 -80v-679
q0 -47 33 -80t80 -33h452q47 0 80.5 33t33.5 80v679q0 47 -33.5 80t-80.5 33h-452zM315 777h396q35 0 60 -24.5t25 -59.5v-622q0 -36 -25 -60.5t-60 -24.5h-396q-35 0 -59.5 24.5t-24.5 60.5v622q0 35 24.5 59.5t59.5 24.5v0zM315 777z" />
    <glyph glyph-name="dingdan2" unicode="&#xe64f;" 
d="M288 448h64v-64h-64v64zM416 320h320v-64h-320v64zM288 320h64v-64h-64v64zM416 192h320v-64h-320v64zM288 192h64v-64h-64v64zM416 448h320v-64h-320v64zM736 704v64h-192v64h-64v-64h-192v-64h-160v-768h768v768h-160zM352 704h320v-64h-320v64zM832 0h-640v640h96v-64
h448v64h96v-640z" />
    <glyph glyph-name="jiantouxiangxia" unicode="&#xe6b7;" 
d="M178 591l-40 -40l374 -374l374 374l-40 40l-334 -333z" />
    <glyph glyph-name="shenhezhong" unicode="&#xe68e;" horiz-adv-x="1025" 
d="M94 879h584h131h37q22 0 29 -2q24 -7 45 -23q4 -2 7 -7l4 -3q7 -10 9 -12q8 -14 15 -41v-24v-47v-127v-147v-49q-2 -9 -4 -12q-6 -11 -17 -15q-13 -6 -25 -0.5t-18 15.5q-2 3 -3 10t-1 12.5v15.5v13v271v50q0 30 -7 40l-4 5q-8 6 -18 8l-13 1h-26h-112h-451h-122h-21
q-10 0 -11.5 -0.5t-3.5 -0.5h-4q-13 -4 -19 -14q-7 -9 -7 -53v-115v-450v-121q0 -36 2 -41q4 -11 13 -18q9 -6 41 -6h75h300h33h16q8 -3 15 -8t10.5 -16t-0.5 -22q-6 -14 -19 -20q-5 -2 -46 -2h-98h-212h-75q-35 0 -43 2q-52 15 -72 61q-3 6 -4.5 13.5t-2.5 18t-1 16v20.5
v18v158v404v108v42q0 2 0.5 5.5t1.5 4.5q4 17 7 24q16 36 56 53q3 2 19 6h4.5t5.5 1zM302 640h321h45q20 0 23 -1q13 -4 21 -16q7 -11 4 -22q-5 -22 -23 -28q-4 -1 -28 -1h-55h-215h-65h-32q-20 6 -25 29q-2 7 0 13t5 11q5 8 15 13q1 0 4.5 0.5t4.5 1.5zM302 435h321h45h23
q13 -4 21 -16q7 -12 4 -23q-5 -22 -23 -28q-4 -1 -28 -1h-55h-215h-65q-29 0 -32 1q-20 6 -25 28q-2 7 0 14q2 6 5 10q5 8 15 13q1 0 4.5 0.5t4.5 1.5zM776 305q58 1 102 -27q34 -22 56 -56q8 -13 11 -19q1 -2 2.5 -6.5t2.5 -6.5q7 -19 10 -43.5t-2 -48.5q0 -3 -1 -8t-2 -8
q-9 -28 -14 -36q-3 -5 -13 -21q3 0 6.5 -1.5t6.5 -3.5t5 -4t5 -5.5t4 -4.5l44 -44q2 -2 6 -5.5t6.5 -6t5.5 -6t4 -7.5q4 -11 1 -22.5t-10 -17t-14 -7.5q-14 -4 -27 4q-3 2 -11 10l-18 18l-32 33q-2 2 -5.5 5t-6 5.5t-4.5 5.5q-3 4 -5 9q-1 0 -1 2t-1 3q0 -1 -9 -6
q-10 -7 -19 -10q-14 -7 -28 -11q-4 -2 -12 -3t-10.5 -1.5t-7.5 -0.5t-8 -1q-9 -2 -17 0q-6 0 -10 1q-3 0 -13 1.5t-15 3.5q-19 6 -29 11q-10 4 -29 17q-44 32 -63 88q-1 1 -8 30v8t-1 7q-2 12 1 27q1 3 1 7.5t1 7.5q8 29 11 36q28 65 94 94q8 3 38 11q12 2 17 2h2.5t2.5 1z
M778 236q-2 0 -7 -0.5t-7 -1.5q-16 -4 -20 -6q-42 -18 -61 -62q0 -2 -5 -21q-5 -21 3 -44q4 -15 6 -18q15 -36 53 -53q10 -4 24 -8q2 0 6.5 -0.5t7.5 -0.5q7 -2 13 -1q2 1 5 1h5q19 5 21 6q44 18 62 59q3 6 7 22q0 2 0.5 6.5t0.5 6.5q2 10 0 21q-5 21 -8 28q-21 49 -79 64
q-6 2 -27 2zM302 231h184h22q10 0 12 -1q14 -4 21 -16t5 -22q-5 -23 -26 -29q-2 -1 -17 -1h-33h-112h-41q-20 0 -27 4q-9 6 -14.5 16.5t-2.5 22.5q3 7 8 14q4 6 14 10q6 1 7 2z" />
    <glyph glyph-name="mima" unicode="&#xe607;" 
d="M764 -58h-505q-53 0 -91.5 36t-38.5 87v283q0 51 38.5 87.5t91.5 36.5h505q54 0 92.5 -36.5t38.5 -87.5v-283q0 -51 -38.5 -87t-92.5 -36v0zM259 413q-29 0 -50 -19t-21 -46v-283q0 -27 21 -46t50 -19h505q30 0 51 19t21 46v283q0 27 -21 46t-51 19h-505zM689 413
q-12 0 -21 8.5t-9 20.5v177q0 61 -43 104t-104 43t-104 -43t-43 -104v-177q0 -12 -9 -20.5t-21 -8.5t-20.5 8.5t-8.5 20.5v177q0 85 60.5 145.5t145.5 60.5t145.5 -60.5t60.5 -145.5v-177q0 -12 -8.5 -20.5t-20.5 -8.5v0zM689 413z" />
    <glyph glyph-name="jushoucanggift" unicode="&#xe684;" 
d="M893 672q-14 17 -27 31q-52 54 -109 72t-111.5 3t-109.5 -59q-14 -11 -27 -23q-13 12 -27 23q-55 44 -109 59t-111.5 -3t-109.5 -72q-13 -14 -25 -30q-63 -91 -65 -186t48.5 -182t149.5 -173q60 -53 133 -100q22 -15 43 -27q11 -6 17 -9q7 -5 15 -7q5 -3 12 -5
q19 -5 44 -1.5t42 13.5q4 2 16 9q21 12 44 27q72 47 133 100q98 86 148.5 173t49 181.5t-63.5 185.5z" />
    <glyph glyph-name="yuyin" unicode="&#xe687;" 
d="M827.5 444.5q-9.5 0.5 -17 -6t-7.5 -15.5q0 -5 -1 -13q-2 -17 -6 -35q-11 -58 -36 -107q-76 -150 -248 -150t-248 150q-25 49 -36 107q-4 18 -6 35q-1 8 -1 13q0 9 -7.5 15.5t-17 6t-16 -7.5t-6.5 -17q1 -22 8 -54q13 -65 40 -119q82 -163 265 -175v-85h-196
q-10 0 -16.5 -7t-6.5 -17t6.5 -16.5t16.5 -6.5h442q10 0 17 6.5t7 16.5t-7 17t-17 7h-199v85q185 10 268 175q27 54 40 119q7 32 8 54q0 10 -6.5 17t-16 7.5zM510 196q80 0 137 56.5t57 136.5v246q0 80 -57 136.5t-137 56.5t-136.5 -56.5t-56.5 -136.5v-246
q0 -80 56.5 -136.5t136.5 -56.5zM364 635q0 61 43 103.5t103.5 42.5t103.5 -42.5t43 -103.5v-246q0 -60 -43 -103t-103.5 -43t-103.5 42.5t-43 103.5v246z" />
    <glyph glyph-name="guankanjilu1" unicode="&#xe6ae;" 
d="M512 833q-91 0 -174.5 -35.5t-143.5 -95.5t-95.5 -143.5t-35.5 -174.5t35.5 -174.5t95.5 -143.5t143.5 -95.5t174.5 -35.5t174.5 35.5t143.5 95.5t95.5 143.5t35.5 174.5t-35.5 174.5t-95.5 143.5t-143.5 95.5t-174.5 35.5v0zM512 -10q-106 0 -197 53t-143.5 143.5
t-52.5 197.5t52.5 197.5t143 143t197.5 52.5t197.5 -52.5t143 -143t52.5 -197.5t-52.5 -197.5t-143.5 -143.5t-197 -53v0zM512 -10zM540 395v270q0 11 -8 19.5t-20 8.5t-20 -8.5t-8 -19.5v-281q0 -11 8 -20l2 -2l139 -139q8 -8 19.5 -8t20 8t8.5 20t-9 20l-132 132v0z
M540 395z" />
    <glyph glyph-name="remai" unicode="&#xe695;" 
d="M422 -35q-14 0 -30.5 1.5t-46 8.5t-56.5 19t-57 36t-52 56t-38 82t-19 111q-2 41 8 85.5t23.5 76.5t32 64t26.5 43.5t14 18.5q10 13 26 11.5t24 -15.5l2 -3t5 -8.5t7 -12.5t9 -16t10.5 -18.5t12 -20.5t12.5 -21q89 139 20 276q-9 18 3 33.5t31 10.5q10 -2 25.5 -7.5
t52.5 -27t69.5 -51t67.5 -85t56 -123.5q24 25 41 62.5t18 76.5q0 19 18 26.5t32 -4.5q40 -34 74 -102t49.5 -152.5t-3.5 -168.5q-9 -39 -27.5 -74t-51.5 -72t-89 -67.5t-130 -47.5q-11 -3 -21.5 3t-14.5 17t0.5 22t15.5 16q37 17 61 57.5t26 87.5q2 69 -42 118
q-11 -67 -51.5 -116.5t-87.5 -55.5q-13 -2 -23.5 7t-11.5 23q0 57 -35 98q-39 -54 -34 -105q5 -64 80 -117q18 -12 12.5 -33t-27.5 -23h-16zM249 490q-69 -114 -65 -207q1 -21 4.5 -43t14.5 -55.5t27.5 -60.5t47.5 -52t71 -36q-34 45 -38 97q-2 28 4.5 56t16 47.5t22.5 37.5
t19 24.5t10 10.5q17 17 38 4q3 -2 7.5 -5.5t16 -15t20.5 -24.5t19 -33.5t15 -43.5q27 23 45.5 64.5t12.5 90.5q-2 19 14 29t32 1q58 -34 88.5 -88.5t27.5 -120.5q-2 -52 -24 -97q108 59 135 171q19 80 -1.5 166t-60.5 149q-15 -49 -45.5 -88.5t-67.5 -57.5
q-14 -7 -27.5 -0.5t-16.5 21.5q-39 183 -175 265q19 -78 -1.5 -157.5t-78.5 -150.5q-10 -13 -26 -12q-16 2 -24 15q-24 41 -57 99z" />
    <glyph glyph-name="jia" unicode="&#xe61e;" 
d="M0 896v-1024h1024v1024h-1024v0zM999 -105h-980v980h980v-980zM478 168h65v184h184v65h-184v186h-65v-186h-185v-65h185v-184z" />
    <glyph glyph-name="gongshang" unicode="&#xe69e;" 
d="M512 -63q-91 0 -173.5 35.5t-142.5 95.5t-95.5 142.5t-35.5 173.5t35.5 173.5t95.5 142.5t142.5 95.5t173.5 35.5t173.5 -35.5t142.5 -95.5t95.5 -142.5t35.5 -173.5t-35.5 -173.5t-95.5 -142.5t-142.5 -95.5t-173.5 -35.5v0zM512 773q-106 0 -195.5 -52t-141.5 -141.5
t-52 -195.5t52 -195.5t141.5 -141.5t195.5 -52t195.5 52t141.5 141.5t52 195.5t-52 195.5t-141.5 141.5t-195.5 52v0zM527 195h172v82h-172v194h172v68h-172v71h243v-202h-176v-59h176v-217h-243v63v0zM254 349h176v59h-176v202h243v-71h-172v-68h172v-194h-172v-82h172v-63
h-243v217v0zM254 349z" />
    <glyph glyph-name="zhifubao" unicode="&#xe61f;" 
d="M230 319q-24 -19 -28 -42q-10 -46 22 -79q34 -35 92 -39q68 -5 147 51q39 27 71 70q-126 64 -213 61q-55 -3 -91 -22zM983 184q41 96 41 200t-40.5 199t-109 163.5t-163.5 109t-199 40.5t-199 -40.5t-163.5 -109t-109 -163.5t-40.5 -199t40.5 -199t109 -163.5t163.5 -109
t199 -40.5q126 0 234.5 57t180.5 155q-222 111 -323 159q-78 -89 -177 -118q-71 -21 -127 -10q-57 12 -90 48q-18 20 -27 38l1 -3v0q-5 7 -8 19q-3 9 -3 18q-1 7 0 13q-1 13 1 24q8 40 35 66q53 51 149 50q76 0 212 -48q22 46 42 121h-307v33h158v67h-191v33h191v66
q0 8 3 12.5t13 4.5h75v-83h207v-33h-207v-67h166q-2 -10 -6 -28t-22 -66.5t-41 -89.5q125 -45 332 -126z" />
    <glyph glyph-name="aixin" unicode="&#xe637;" 
d="M566 686q-75 0 -130 -55v0v0l-21 -27l-21 25v0v0v0q-57 57 -130 57q-80 0 -137 -57t-57 -137.5t57 -136.5l257 -260q13 -13 31 -13t31 13l76 77q-65 56 -129 133q-13 21 -22 49t-12.5 61.5t7.5 61.5q20 51 53.5 83t104.5 43q31 4 55.5 0.5t42 -11.5t29.5 -16t17 -15l6 -6
q13 17 58 38q-12 20 -29 36q-57 57 -137 57v0v0v0zM796 573q-60 0 -105 -45v0v0l-17 -22l-17 20v0v0v0q-46 47 -106 47q-65 0 -111.5 -46.5t-46.5 -111.5t47 -112l209 -211q10 -10 24.5 -10t25.5 10l209 211q46 47 46 112t-46 111.5t-112 46.5v0v0v0zM796 573z" />
    <glyph glyph-name="vip2" unicode="&#xe671;" horiz-adv-x="1229" 
d="M1126.5 486q-42.5 0 -72.5 30t-30 72.5t30 72.5t72.5 30t72.5 -30t30 -72.5t-30 -72.5t-72.5 -30zM1126.5 640q-21.5 0 -36.5 -15t-15 -36t15 -36t36.5 -15t36.5 15t15 36t-15 36t-36.5 15zM1024 128v-154q0 -40 -30.5 -71t-71.5 -31h-615q-102 0 -102 102v154l-51 307
l229 -47l231 252l228 -252l233 47zM256 -26q0 -20 15 -35.5t36 -15.5h615q25 0 38 15t13 36v103h-717v-103zM819 333l-205 205l-204 -205l-205 51l51 -256h717l51 256zM614.5 691q-42.5 0 -72.5 30t-30 72.5t30 72.5t72.5 30t72.5 -30t30 -72.5t-30 -72.5t-72.5 -30z
M614.5 845q-21.5 0 -36.5 -15t-15 -36.5t15 -36.5t36.5 -15t36.5 15t15 36.5t-15 36.5t-36.5 15zM102.5 486q-42.5 0 -72.5 30t-30 72.5t30 72.5t72.5 30t72.5 -30t30 -72.5t-30 -72.5t-72.5 -30zM102.5 640q-21.5 0 -36.5 -15t-15 -36t15 -36t36.5 -15t36.5 15t15 36
t-15 36t-36.5 15z" />
    <glyph glyph-name="aixin1" unicode="&#xe629;" 
d="M965 553q-29 79 -84 143q-13 17 -34 18.5t-37.5 -12t-18 -35t11.5 -37.5q90 -106 90 -246q0 -103 -51 -191t-139 -139t-191 -51t-191 51t-139 139t-51 191t51 191t139 139t191 51q91 0 172 -40q19 -10 39 -3.5t29.5 25.5t3 39t-25.5 30q-102 52 -218 52q-98 0 -188 -38
q-87 -37 -154 -104t-104 -154q-38 -90 -38 -188t38 -188q37 -87 104 -154t154 -104q90 -38 188 -38t188 38q87 37 154 104t104 154q38 90 38 188q0 88 -31 169zM626 609q-38 -4 -71 -27q-9 -6 -26 -21l-16 -16q-19 20 -20 21q-36 34 -82 42q-26 4 -50 2q-34 -2 -65 -21
q-21 -12 -36 -26q-35 -35 -46 -84q0 -1 -4 -22v-29q4 -21 4 -22q8 -38 32 -67q20 -25 64 -61q9 -8 25.5 -22t21.5 -18q12 -10 36.5 -31t37.5 -31q8 -8 24 -22t24 -20q5 -5 15.5 -13.5t13.5 -11.5q1 0 4 -4h3q46 40 50 43q12 10 36 30.5t37 31.5l24 21l24 21q5 4 28.5 23.5
t35.5 30.5q35 30 49 60q14 28 16 53l2 2v44q-6 23 -7 25q-7 27 -27 55q-30 40 -80 58q-34 11 -77 6z" />
    <glyph glyph-name="fanhuidingbu" unicode="&#xe697;" 
d="M511 893q-104 0 -198.5 -40t-162.5 -108.5t-108.5 -163t-40.5 -198.5t40.5 -198.5t108.5 -163t162.5 -109t198.5 -40.5t198.5 40.5t163 109t109 163t40.5 198.5t-40.5 198.5t-109 163t-163 108.5t-198.5 40v0zM511 -91q-96 0 -183.5 37.5t-151 101t-101 151t-37.5 184
t37.5 184t101 151t151 101t184 37.5t184 -37.5t151 -101t101 -151t37.5 -184t-37.5 -184t-101 -151t-151 -101t-184.5 -37.5v0zM661 512l-137 137q-5 5 -11 5h-0.5h-1.5q-3 0 -6 -1t-5 -4l-124 -123q-10 -11 0 -21q5 -5 11.5 -5t10.5 4l98 98v-268q0 -6 4.5 -10.5t11 -4.5
t11 4.5t4.5 10.5v269l112 -113q5 -4 11 -4t10 4q11 11 1 22v0zM679 684h-335q-6 0 -10.5 4.5t-4.5 11t4.5 11t10.5 4.5h335q6 0 10.5 -4.5t4.5 -11t-4.5 -11t-10.5 -4.5v0zM264 277q12 -1 24 -1h28q12 0 25 1v-17q-16 1 -26 1v-149q0 -20 -12.5 -24t-28.5 -8q-2 13 -8 24
q15 0 22.5 1t7.5 14v142q-19 0 -32 -1v17v0v0zM330 86q28 6 44 16t21 24t6.5 34.5t0.5 42.5q12 -2 23 -3q-3 -11 -4 -30.5t-5 -40.5t-22.5 -37t-49.5 -27q-4 11 -14 21v0zM397 236q2 17 3 33h-19q-11 0 -32 -1v17q19 -1 32 -1h73q17 0 33 1v-17q-17 1 -33 1h-33
q-3 -16 -5 -33h58q-1 -15 -1 -56.5t1 -57.5h-19v99h-80v-101h-19q1 17 1 58q0 42 -1 58h41v0v0zM462 105q16 -12 30 -24q-10 -9 -17 -18q-17 18 -28.5 27.5t-25.5 18.5q10 8 16 15q9 -7 25 -19v0zM608 271q-6 -3 -11 -6q42 0 53 1v-19q-7 0 -27 1l17 -8q-7 -11 -20 -38
q24 0 37 1v-19q-13 1 -26 1h-74q-18 0 -30 -1v19q7 -1 38 -1q-7 16 -18 34q8 4 17 9q10 -14 20 -35q-9 -4 -14 -8h31q13 30 16 46h-24q-45 0 -59 -1v19q12 -1 53 -1q-8 16 -15 25q9 4 15 9q16 -19 21 -28v0zM638 116q0 -23 1 -48h-20v20h-53v-20h-20q1 21 1 44t-1 49h93
q-1 -22 -1 -45v0zM566 104h53v41h-53v-41zM747 163q8 -16 7 -31.5t-13 -24t-37 -11.5q-2 11 -9 24q24 0 31.5 5t7 14t-10.5 25t-23 29q8 17 21 68h-36v-195h-20q1 21 1 48v120q0 22 -1 44h83q-16 -52 -27 -82q18 -18 26 -33v0z" />
    <glyph glyph-name="jstb" unicode="&#xe685;" 
d="M978 311zM361 -57zM776 666q0 14 -10 24.5t-24 10.5h-488q-14 0 -24 -10.5t-10 -25t10 -25t24 -10.5h488q14 0 24 10.5t10 25.5v0zM776 666zM250 515q-12 0 -21 -10.5t-9 -25t9 -25t21 -10.5h298q13 0 22 10.5t9 25t-9 25t-22 10.5h-298v0zM378 315h-134q-10 0 -17 -10
t-7 -25t7 -25t17 -10h134q10 0 17 10t7 25t-7 25t-17 10v0zM445 315zM361 -57h-217q-28 0 -47.5 20.5t-19.5 48.5v744q0 29 19.5 49t47.5 20h721q28 0 48 -20t20 -49v-190q0 -14 10 -24.5t24 -10.5t24 10.5t10 24.5v190q0 58 -40 99t-96 41h-721q-56 0 -96 -41t-40 -99v-744
q0 -58 40 -99t96 -41h217q14 0 24 10.5t10 25t-10 25t-24 10.5v0zM625 302q0 -108 -4 -154t-18.5 -73.5t-55.5 -57.5q-14 16 -35 20q37 17 55.5 40.5t23.5 62.5q5 37 5 113q0 88 -3 105q17 -5 39 -5q6 0 7 -3t-5 -6q-9 -5 -9 -42zM559 288v-185h-29v155q0 43 -4 60
q17 -2 36 -2q5 0 5.5 -2t-3.5 -4q-5 -3 -5 -22zM727 311q-48 -1 -76 -4v34q34 -4 99 -4t99 4v-34q-32 4 -92 4v-54q51 1 77 4q-3 -19 -3 -43v-116q0 -15 -8.5 -21t-39.5 -10q-1 20 -17 36q36 -5 36 10v115h-45v-161q0 -28 3 -56h-37q4 30 4 56v161h-43v-160h-31q2 22 2 48
v98q0 24 -2 43q32 -3 74 -4v54zM690 524q-88 0 -163.5 -43.5t-119.5 -119t-44 -163.5t44 -163t119.5 -119t163.5 -44t163 44t119 119t44 163t-43.5 163t-118.5 119t-164 44v0v0zM690 -83q-116 0 -197.5 81.5t-81.5 196.5t81.5 196.5t197 81.5t197 -81.5t81.5 -196.5
q2 -115 -79.5 -196.5t-198.5 -81.5v0v0zM586 -31zM1001 692zM479 541zM670 342z" />
    <glyph glyph-name="shangxia" unicode="&#xe6aa;" 
d="M837 262h-650q-24 0 -35.5 -12t0.5 -24q19 -20 166.5 -174.5t158.5 -165.5q14 -13 36.5 -12.5t35.5 12.5q5 5 159 167.5t164 172.5q12 12 0 23.5t-35 12.5zM187 506h650q23 0 35 11.5t0 24.5q-9 10 -164 172.5t-161 168.5q-11 12 -34 12.5t-38 -12.5q-5 -7 -79.5 -85.5
t-155.5 -163t-88 -92.5q-12 -12 -0.5 -24t35.5 -12z" />
    <glyph glyph-name="yue" unicode="&#xe61;" horiz-adv-x="1026" 
d="M874 746q-74 74 -169.5 112t-192.5 38t-192.5 -38t-169.5 -112q-98 -98 -133 -230t-0.5 -264t133 -230t230.5 -133t264 0t230.5 133t133 230t-0.5 264t-133 230zM749 401q0 -22 -44.5 -37t-108.5 -15t-108.5 15t-44.5 37t45 37.5t108 15.5q64 0 108.5 -15.5t44.5 -37.5z
M426 637q64 0 108.5 -15t44.5 -37.5t-44.5 -37.5t-109 -15t-109.5 15t-45 38q0 21 45.5 36.5t109.5 15.5zM424 227q-65 0 -111 20.5t-46 48.5v51q0 10 5 18q12 -24 54.5 -39.5t97.5 -15.5v-83zM424 330q-65 0 -111 20.5t-46 48.5v51q0 10 5 18q12 -24 54.5 -39.5t97.5 -15.5
v-83zM426 429q-66 0 -112.5 20.5t-46.5 49.5v51q0 7 4 17q2 -22 46.5 -36.5t108.5 -15.5q62 0 106 14.5t47 35.5q3 -10 3 -15v-49q0 -17 -16 -30q-49 -3 -85.5 -14t-46.5 -28h-8zM754 218q0 -29 -46.5 -49.5t-111.5 -20.5t-111.5 20.5t-46.5 49.5v49q0 9 5 17q13 -22 56 -37
t97 -15q56 0 98.5 15t54.5 39q5 -11 5 -18v-50zM758 317q0 -28 -46.5 -48.5t-112 -20.5t-112 20.5t-46.5 48.5v51q0 10 4 16q2 -21 46.5 -36t106.5 -15t106 15t47 36q3 -11 7 -16v-51z" />
    <glyph glyph-name="wodetongxue" unicode="&#xe608;" 
d="M512 896q-139 0 -257 -68.5t-186.5 -186.5t-68.5 -257t68.5 -257t186.5 -186.5t257 -68.5t257 68.5t186.5 186.5t68.5 257t-68.5 257t-186.5 186.5t-257 68.5zM582 641q49 0 83 -35t34 -84t-34 -84t-83 -35q-8 0 -12 1q17 30 17 63q0 46 -28 81t-71 44q35 49 94 49z
M447.5 586q48.5 0 83 -34.5t34.5 -84t-34.5 -84t-83 -34.5t-83 34.5t-34.5 84t34.5 84t83 34.5zM445 166q-58 0 -102.5 7.5t-62.5 15.5t-18 14q0 52 26.5 96.5t70.5 69.5q1 0 2 0.5l1 0.5q42 -29 84 -29t83 29q6 -3 9 -5q41 -25 65.5 -68.5t24.5 -93.5q0 -6 -18 -14
t-62.5 -15.5t-102.5 -7.5zM654 224q-2 48 -26 89.5t-63 65.5q-6 4 -9 5q1 1 3 3.5t3.5 5t3.5 4.5q9 -1 14 -1q42 0 84 29q5 -3 9 -5q41 -26 65 -69.5t24 -93.5q0 -4 -10.5 -10t-37 -12.5t-60.5 -10.5z" />
    <glyph glyph-name="wodedingdan" unicode="&#xe609;" 
d="M439 298l6 -21l206 30l-6 22zM424 359l9 -21l265 36l-8 21zM576 443l-167 -25l5 -18l167 24zM512 896q-104 0 -198 -40.5t-162.5 -108.5t-108.5 -162.5t-40 -198t40 -198t108.5 -162.5t162.5 -108.5t198 -40.5t198 40.5t162.5 108.5t108.5 162.5t40 198t-40 198
t-108.5 162.5t-162.5 108.5t-198 40.5zM534 667q16 0 27.5 -12t11.5 -29q0 -16 -11.5 -28t-27.5 -12t-27.5 12t-11.5 28q0 17 11.5 29t27.5 12zM496 614q-1 -6 -1 -10q0 -17 12 -29t29 -12q16 0 28 12t12 29q0 5 -2 12q21 -18 21 -46q0 -25 -17 -42.5t-41.5 -17.5
t-41.5 17.5t-17 42.5q-1 26 18 44zM259 226l56 214q30 -236 38 -252zM642 102l-206 71l211 22zM394 190q-55 243 -59 365l126 20q-1 -8 -1 -17q0 -33 22.5 -56t54 -23t54 23t22.5 56q0 20 -10 39l103 15l3 -18t8.5 -46t12.5 -66t14 -71.5t15.5 -69t15 -53t13.5 -28.5z" />
    <glyph glyph-name="tianjiabanzhuren" unicode="&#xe60a;" 
d="M655 410h-117v119q0 6 -4.5 10.5t-11.5 4.5h-20q-6 0 -10.5 -4.5t-4.5 -10.5v-119h-118q-6 0 -10.5 -4.5t-4.5 -10.5v-21q0 -6 4.5 -10.5t10.5 -4.5h118v-117q0 -6 4.5 -10.5t11.5 -4.5h20q6 0 10.5 4.5t4.5 10.5v117h117q7 0 11.5 4.5t4.5 10.5v0v21q-1 6 -5.5 10.5
t-10.5 4.5zM513 896q-104 0 -198.5 -40.5t-163 -108.5t-109 -162.5t-40.5 -198.5t40.5 -198.5t109 -163t163 -108.5t198 -40t198 40.5t163 108.5t109 162.5t40.5 198.5t-40.5 198t-109 162.5t-163 109t-197.5 40.5zM734 215q0 -21 -14.5 -36t-35.5 -15h-343q-21 0 -36 15
t-15 36v342q0 21 15 36t36 15h343q21 0 35.5 -14.5t14.5 -36.5v-342z" />
    <glyph glyph-name="guanzhugongzhonghao" unicode="&#xe60b;" horiz-adv-x="1025" 
d="M512 448q-15 23 -39.5 25t-42 -15t-17.5 -43q0 -17 11 -34t20 -25t27 -22q39 -30 41 -33q7 7 42 33q57 43 57 81q0 26 -17.5 43t-41.5 15t-40 -25zM512 896q-104 0 -198.5 -40.5t-163 -109t-109 -163.5t-40.5 -199t40.5 -198.5t109 -163t163 -109t198.5 -40.5t199 40.5
t163.5 109t109 163t40.5 198.5t-40.5 199t-109 163.5t-163.5 109t-199 40.5zM625 217q-14 -10 -36 -26t-29 -21.5t-18 -14t-17 -14t-13 -11.5q-10 10 -21 18.5t-38.5 28.5t-53.5 40l-43.5 34.5t-40 36.5t-39 44.5t-24.5 47.5t-11 56q0 41 19.5 76.5t50.5 54.5t66.5 24.5
t72 -12t62.5 -55.5q26 38 62.5 55.5t72 12t67 -24.5t50.5 -54t19 -76q0 -35 -13.5 -67t-40.5 -61t-49 -48t-55 -44z" />
    <glyph glyph-name="wodeshezhi" unicode="&#xe60c;" 
d="M512 896q-104 0 -198.5 -40.5t-163 -108.5t-108.5 -162.5t-40 -198.5t40 -198.5t108.5 -163t163 -108.5t198 -40t198 40.5t163 108.5t109 162.5t40.5 198.5t-40.5 198t-108.5 162.5t-162.5 109t-198.5 40.5zM760 351q-2 -8 -8.5 -15t-14.5 -9l-8 -2q-32 -9 -47 -37
q-16 -28 -9 -59l3 -8q2 -8 -1 -17.5t-9 -14.5q-7 -7 -29 -19l-31 -16q-19 -6 -33 8l-5 6q-25 22 -56 22q-33 0 -56 -22l-5 -6q-14 -14 -33 -7q-10 3 -31 15q-30 17 -30 19q-6 6 -8.5 15.5t-0.5 17.5l2 7q8 31 -8 59q-17 28 -47 37l-8 2q-9 2 -15.5 9t-7.5 15q-2 10 -2 35
l2 34q1 9 8 16t15 9l8 2q30 9 47 37q16 27 8 59l-2 8q-2 8 0.5 17.5t8.5 14.5q8 6 30 19l31 16q18 6 33 -8l5 -6q23 -22 55 -22t56 22l5 6q14 15 33 8q10 -4 31 -16l30 -18q6 -6 8.5 -15.5t0.5 -17.5l-3 -8q-7 -31 9 -59t46 -37l9 -2q8 -2 15 -9t8 -16q1 -10 2 -34zM512 485
q-41 0 -70.5 -29t-29.5 -70t29.5 -70.5t70.5 -29.5t70 29.5t29 70.5t-29 70t-70 29z" />
    <glyph glyph-name="guankanjilu" unicode="&#xe60d;" 
d="M512 896q-139 0 -257 -68.5t-186.5 -186.5t-68.5 -257t68.5 -257t186.5 -186.5t257 -68.5t257 68.5t186.5 186.5t68.5 257t-68.5 257t-186.5 186.5t-257 68.5zM512 193q-92 0 -166.5 53t-106.5 138q32 85 106.5 138t166.5 53t166.5 -53t106.5 -138q-32 -85 -106.5 -138
t-166.5 -53zM512 512q-52 0 -88 -37t-36 -91t36 -91t88 -37t88 37t36 91t-36 91t-88 37zM511.5 307q-31.5 0 -53 22t-21.5 55q0 32 22 54.5t53.5 22.5t53 -22t21.5 -55q0 -32 -22 -54.5t-53.5 -22.5z" />
    <glyph glyph-name="crmyoujiantou" unicode="&#xe603;" 
d="M692 417l-300 300q-8 8 -19 8q-12 0 -20 -9l-13 -13l-13 -13q-9 -8 -9 -19.5t8 -19.5l260 -260q3 -3 3 -7t-3 -7l-260 -260q-8 -8 -8 -19.5t8 -18.5l14 -14t14 -13q7 -9 19 -9q11 0 19 8l300 300q14 14 14 33t-14 33z" />
    <glyph glyph-name="shanchu" unicode="&#xe61c;" 
d="M782 655.5q55 -55.5 84 -126.5q29 -70 28 -145q1 -75 -28 -144q-29 -72 -84 -127t-127 -84q-69 -28 -144 -28t-144 28q-72 29 -127 84t-84 127q-28 69 -28 144t28 145q29 71 84 126.5t127 84.5q69 28 144 28t144 -28q72 -29 127 -84.5zM828 701q-65 64 -148.5 97.5
t-168.5 33.5t-168.5 -33.5t-147.5 -97.5q-86 -86 -116.5 -201.5t0 -230.5t116.5 -201q64 -64 147.5 -97.5t168.5 -33.5t168.5 33.5t148.5 97.5q85 86 115.5 201t0 230.5t-115.5 201.5v0v0zM557 383l160 159l-45 45l-160 -159l-159 159l-46 -45l160 -160l-157 -156l45 -46
l157 157l157 -157l45 45zM714 225z" />
    <glyph glyph-name="shangcheng" unicode="&#xe68d;" 
d="M512 -359zM215 693h590q10 0 17 7t7 17t-7 16.5t-17 6.5h-590q-10 0 -17 -6.5t-7 -16.5t7 -17t17 -7zM916 479l-72 163h-677l-50 -147q-4 -9 -6 -19l-1 -3v0q-2 -12 -2 -28q0 -41 30 -69q26 -25 66 -31q9 -1 19 -1q48 0 83 30l6 6q6 -10 14 -18q33 -37 81 -37t83 36
q7 7 12 14q7 -10 17 -18q40 -35 88 -35t88 37q9 8 16 17q8 -12 19 -22q32 -27 81 -27q8 0 18 1q42 4 69.5 32.5t27.5 67.5q0 31 -10 51zM824 374q-40 -4 -63 15.5t-24 53.5q0 3 -1 6q-2 8 -8.5 14t-15.5 6t-16 -7t-7 -17q0 -27 -26 -52q-27 -24 -56 -24q-30 0 -57 23
q-22 19 -25 42v11q0 10 -7 17t-16 7q-18 0 -23 -18q-2 -4 -2 -9v-8q-4 -23 -20 -40q-22 -22 -50 -22q-27 0 -46 22q-20 21 -20 51q0 10 -7 17t-17 7q-9 0 -16 -7t-7 -16v-3q0 -18 -18 -33q-28 -24 -65 -19q-28 5 -42 20.5t-14 33.5q0 10 1 19l4 12l0.5 0.5l0.5 0.5q4 5 4 12
l36 106h613l56 -127q1 -5 3 -9l0.5 -0.5l0.5 -0.5l1 -2v0q4 -9 4 -28t-14.5 -35t-40.5 -19zM836 260v8v0v16q-42 -1 -87 25q-24 14 -46 -2q-51 -35 -98 -28q-31 5 -56 25q-25 19 -52 2q-82 -54 -154 -2q-12 9 -26.5 8.5t-26.5 -9.5q-15 -12 -40.5 -17t-43.5 -4l-1 -2h-2
l-2 -273q0 -16 11 -27.5t27 -11.5h558q16 0 27.5 11.5t11.5 27.5v230h1zM248 15l1 223q43 7 69 27q45 -33 99 -33q53 0 104 33q35 -26 77 -33q12 -1 23 -1q54 0 107 36q30 -17 61 -25v-227h-541z" />
    <glyph glyph-name="shoujiguankan" unicode="&#xe652;" 
d="M728 831h-432q-19 0 -32.5 -13.5t-13.5 -32.5v-802q0 -19 13.5 -32.5t32.5 -13.5h432q19 0 32.5 13.5t13.5 32.5v802q0 19 -13.5 32.5t-32.5 13.5zM512 -17q-13 0 -22 9t-9 22t9 22t22 9t22 -9t9 -22t-9 -22t-22 -9zM728 91h-16h-400h-16v648h16h400h16v-648z" />
    <glyph glyph-name="distribute" unicode="&#xe665;" 
d="M898 176q-30 90 -91 153q-53 53 -125 83q-68 28 -139 33v49v4q62 11 103.5 60t41.5 113q0 72 -51.5 123.5t-124 51.5t-124 -51t-51.5 -124q0 -64 41 -112.5t103 -60.5q-1 -1 -1 -4v-48q-72 -6 -139 -34q-72 -30 -125 -83q-62 -62 -91 -153q-44 -10 -73 -45t-29 -81
q0 -53 38 -90.5t91 -37.5t90.5 37.5t37.5 90.5q0 43 -25 77t-65 46q48 127 173 181q56 23 118 29v-208q-43 -11 -70.5 -45.5t-27.5 -79.5q0 -53 37.5 -90.5t91 -37.5t91 37.5t37.5 90.5q0 45 -27.5 79.5t-69.5 45.5v208q58 -5 115 -28q127 -54 175 -183q-39 -13 -64 -46.5
t-25 -75.5q0 -53 38 -91t91 -38t90.5 38t37.5 91q0 46 -29.5 81.5t-73.5 44.5v0zM218 50q0 -27 -19.5 -46.5t-47 -19.5t-47 19.5t-19.5 47t19.5 46.5t47 19t47 -19.5t19.5 -46.5v0zM399 671q0 47 33.5 80t80 33t79.5 -33t33 -80t-33 -80t-79.5 -33t-80 33t-33.5 80v0z
M578 50q0 -27 -19.5 -46.5t-47 -19.5t-47 19.5t-19.5 47t19.5 46.5t47 19t47 -19t19.5 -47v0zM872 -16q-27 0 -46.5 19.5t-19.5 47t19.5 46.5t47 19t47 -19t19.5 -46.5t-19.5 -47t-47.5 -19.5v0zM872 -16z" />
    <glyph glyph-name="aixin5" unicode="&#xe6ba;" 
d="M707 803q-57 0 -108.5 -27.5t-87.5 -75.5q-36 48 -87.5 75.5t-108.5 27.5q-105 0 -179 -81t-74 -196q0 -42 13 -84t25.5 -64t34.5 -57q27 -42 72 -92.5t86 -89.5t88 -79.5t66 -55.5t32 -25q14 -11 32 -11t32 11q13 9 32 24.5t66 56t88 79.5t86 89.5t72 92.5
q22 35 34.5 57t25.5 64t13 84q0 115 -74 196t-179 81zM841 356q-26 -40 -70 -89t-84.5 -87t-86.5 -77t-62.5 -52.5t-26.5 -21.5v0q-10 8 -26.5 21t-62.5 52.5t-86 77.5t-84.5 87t-70.5 89q-20 32 -31.5 53t-21.5 53t-10 64q0 89 57.5 152t139.5 63q59 0 107.5 -35t71.5 -93
v1v0q4 -14 17 -14t17 14v0q23 57 71.5 92t107.5 35q82 0 139.5 -63t57.5 -152q0 -46 -16 -83.5t-47 -86.5z" />
    <glyph glyph-name="guanzhu1" unicode="&#xe659;" 
d="M596 62l-19 -19q-27 -28 -41 -41q-14 -12 -34 -16q-2 0 -12 2q-16 4 -34 22q-15 16 -64 65q-13 14 -29 30q-4 5 -15 16t-16 17q-11 11 -30.5 31.5t-27.5 28.5q-11 11 -31 31.5t-26 27.5q-7 7 -28.5 29.5t-33.5 34.5q-28 29 -32 34q-3 4 -16 26q-3 5 -11 20q-6 10 -7 13
q-5 11 -11 30q-7 21 -8 25q-5 27 -6 43q-1 32 2 53q4 31 11 48q2 5 5.5 15.5t6.5 16.5q7 15 15 27q14 21 26 35q10 12 28 26q9 8 23 17q13 8 26 13q24 10 34 13q32 8 57 6q1 0 10 -0.5t14 -1.5q39 -7 48 -11q2 -1 17 -7t22 -10q20 -11 38 -25q6 -5 44 -40q1 -2 5 -7
q4 -4 8 0q22 23 28 28q14 12 34 26q13 10 28 18q9 5 24 11q11 4 35 12q1 1 8 2h4t4 1q18 5 62 3q5 0 34 -7q8 -2 22 -7q6 -2 12 -5q26 -14 42 -26q23 -18 42 -42q7 -10 21 -33q6 -10 12 -25q2 -3 6 -17l8 -23l0.5 -1.5t0.5 -2.5q4 -30 5 -37q1 -4 1 -11t1 -10q0 -5 -4 -5
h-31q-5 0 -5 6q-1 23 -3 32q0 6 -6 26q-3 11 -7 22q-2 6 -6 13q-16 32 -32 50q-25 28 -49 41q-12 7 -30 14q-29 12 -82 8l-32 -8q-3 -1 -8.5 -3t-6.5 -2q-18 -6 -36 -18q-27 -19 -38 -29q-33 -30 -52 -56q-1 -1 -3.5 -4t-3.5 -5q-3 -5 -7 0q-35 44 -39 48q-26 29 -55 45
q-24 14 -30 17q-3 2 -17 6q-23 6 -29 8q-7 1 -20 2q-28 0 -37 -1q-6 -1 -30 -8q-11 -3 -16 -5q-21 -11 -28 -16q-14 -10 -31 -27q-17 -16 -30 -40q-4 -7 -16 -35q-5 -14 -7 -21q-4 -14 -6 -31q-2 -14 -2 -25q1 -27 3 -44q0 -4 6 -24q4 -11 6 -17q8 -17 14 -30q10 -21 15 -29
q5 -6 20 -22q0 -1 36 -37q11 -12 33 -35t33 -33q2 -3 14 -15t18 -19q10 -11 32 -33.5t33 -34.5q5 -5 14 -14.5t14 -13.5q7 -8 22 -24t23 -24q26 -27 45 -46q6 -6 13 -11q2 -1 4 -0.5t3 0.5q16 16 39 38l10 10l11 11q1 1 3 1t3 -1q5 -4 26 -24v0v0zM692 272q-53 0 -71 1
q-3 0 -3 3q-1 16 0 31q0 3 4 3h140q8 0 8 7v9v124q0 8 1.5 9.5t10.5 1.5h22q5 1 5 -5v-135v-5q1 -6 6 -6h3.5h3.5h134q4 0 4 -4v-29q0 -5 -5 -5q-46 1 -136 1q-7 0 -8.5 -2t-1.5 -8v-71v-66q0 -5 -1 -6t-7 -1q-3 1 -24 0q-7 0 -7 7v63v69v7q-1 8 -8 8h-70v-1v0z" />
    <glyph glyph-name="yanjing1" unicode="&#xe6bb;" 
d="M511 -20q-80 0 -160 32.5t-140.5 81.5t-108.5 104.5t-73 104.5t-25 78q0 39 25 90.5t73 105.5t109 100.5t140.5 75.5t159.5 29t160 -32t140.5 -81t108.5 -104.5t73 -104.5t25 -79t-25 -79.5t-73 -105t-108.5 -104t-140.5 -80.5t-160 -32v0v0zM511 719q-70 0 -140 -25
t-123 -64t-95 -84.5t-64 -89t-22 -75.5q0 -24 22 -65t64 -88t95 -88.5t123 -68.5t140 -27t140 27.5t123 69.5t95 89t64 87.5t22 63.5q0 24 -22 65t-64 88t-95 88.5t-123 69t-140 27.5v0v0zM511 191q-79 0 -134.5 56t-55.5 134.5t55.5 134.5t134.5 56t134.5 -56t55.5 -134.5
t-55.5 -134.5t-134.5 -56v0v0zM511 508q-53 0 -90 -37t-37 -89.5t37 -89.5t90 -37t90 37t37 89.5t-37 89.5t-90 37v0v0z" />
    <glyph glyph-name="guanzhu2" unicode="&#xe656;" 
d="M891 601q-11 1 -43 3q-98 5 -123 11q-26 7 -44 21t-23 24l-5 11l-25 77q-12 38 -31 65l-11 14q-21 23 -51 31t-61 -1q-47 -16 -67 -61q-5 -10 -17 -40q-34 -88 -49 -113q-14 -24 -27 -36.5t-33 -14.5h-96q-40 0 -71 -10l-17 -6q-28 -14 -45.5 -40t-17.5 -58q0 -49 37 -82
q9 -9 33 -28q67 -55 93 -82q19 -20 25.5 -41t3.5 -32l-3 -11l-26 -80q-12 -39 -13 -71l1 -18q4 -31 23.5 -55.5t49.5 -34.5q47 -15 90 10q10 5 37 22q80 52 106 63q17 8 28 11t25 2.5t26 -7.5l78 -56q32 -24 63 -34l17 -5q31 -6 60.5 5t48.5 37q29 40 18 88q-2 12 -10 42
q-24 92 -27 121q-6 56 19 77l77 56q33 24 52 50l10 15q15 26 13.5 58t-20.5 58q-28 40 -78 45z" />
    <glyph glyph-name="shangcheng1" unicode="&#xe68f;" 
d="M873 664h-720l-65 -195q0 -45 31 -77t75 -32t75 32t31 77q0 -45 31.5 -77t75.5 -32t75 32t31 77q0 -45 31 -77t75 -32t75.5 32t31.5 77q0 -45 31 -77t75 -32t75 32t31 77zM225 698h576q16 0 27.5 10t11.5 23.5t-11.5 23t-27.5 9.5h-576q-16 0 -27.5 -9.5t-11.5 -23
t11.5 -23.5t27.5 -10zM726 354q-45 -43 -106.5 -43t-106.5 43q-45 -43 -106.5 -43t-106.5 43q-44 -43 -106 -43q-4 0 -8 1v-241q0 -28 20.5 -47t44.5 -19h524q29 0 47 19t18 47v241q-4 -1 -8 -1q-62 0 -106 43z" />
    <glyph glyph-name="gpsbiaozhudianguanli" unicode="&#xe65a;" 
d="M508 -128q-8 9 -21.5 24.5t-53 63.5t-75 95.5t-79.5 112t-75.5 120.5t-53 115t-21.5 102q0 103 50.5 190t138 138t190.5 51t190.5 -51t138.5 -138t51 -190q0 -59 -39.5 -146t-95 -169t-111.5 -155t-94.5 -118t-39.5 -45zM508 835q-90 0 -166 -44.5t-120.5 -122
t-44.5 -168.5q0 -142 240 -448q51 -67 91 -112q14 15 36 41.5t79 101t101 141t79.5 145.5t35.5 131q0 91 -44 168.5t-120.5 122t-166.5 44.5zM508.5 378q-65.5 0 -112 46.5t-46.5 112t46.5 111.5t112 46t111.5 -46t46 -111.5t-46 -112t-111.5 -46.5zM508.5 650
q-48.5 0 -82.5 -34t-34 -82.5t34 -82.5t82.5 -34t82.5 34t34 82.5t-34 82.5t-82.5 34z" />
    <glyph glyph-name="shequndajian" unicode="&#xe73f;" 
d="M905 432q-26 31 -54 49q37 78 37 150q0 68 -40.5 113t-101.5 45q-55 0 -93.5 -38t-45.5 -97q-43 30 -95 30t-94 -30q-7 59 -46 97t-94 38q-61 0 -101 -45t-40 -113q0 -72 36 -150q-28 -19 -54 -49q-24 -27 -42.5 -57t-27.5 -51.5t-15.5 -42.5t-7.5 -28.5t-1 -11.5
q-1 -8 4.5 -14.5t14.5 -6.5h258q-26 -32 -46 -66.5t-30 -59t-17 -48.5t-8.5 -32t-1.5 -14q-1 -8 4.5 -14.5t14.5 -6.5h588q9 0 14.5 6.5t4.5 14.5q0 6 -1.5 14t-8 32t-16.5 48.5t-30 59t-46 66.5h258q8 0 14 6.5t5 14.5q-1 5 -2 12t-7 28.5t-15.5 42.5t-28 51t-42.5 57z
M746.5 750q44.5 0 73.5 -33.5t29 -85.5q0 -41 -15 -89.5t-39.5 -83t-48.5 -34.5q-30 0 -62 58q1 6 1 9q0 73 -41 126q-1 10 -1 14q0 52 29.5 85.5t74 33.5zM512 645q58 0 96 -43.5t38 -110.5q0 -49 -19 -111t-51 -108t-64 -46t-64 46t-51 108t-19 111q0 67 38 110.5t96 43.5
zM277.5 750q44.5 0 74 -33.5t29.5 -85.5q0 -4 -1 -14q-40 -53 -40 -126v-9q-32 -58 -62 -58q-24 0 -48.5 34.5t-39.5 83t-15 89.5q0 52 29 85.5t73.5 33.5zM147 407q22 25 44 40q40 -61 87 -61q36 0 69 38q12 -65 40 -124q-27 -16 -52 -42h-268q19 78 80 149zM241 18
q23 101 104 194q29 35 61 55q49 -79 106 -79t106 79q32 -20 61 -55q81 -93 104 -194h-542zM689 258q-25 25 -52 42q28 58 40 124q33 -38 69 -38q47 0 87 61q22 -15 43 -40q62 -71 81 -149h-268v0z" />
    <glyph glyph-name="jiaguanzhu" unicode="&#xe65b;" horiz-adv-x="2560" 
d="M1140 510h84v-264h-84v264zM2432 896h-2304q-53 0 -90.5 -37.5t-37.5 -90.5v-768q0 -53 37.5 -90.5t90.5 -37.5h2304q53 0 90.5 37.5t37.5 90.5v768q0 53 -37.5 90.5t-90.5 37.5zM659 363h-216v-215q0 -9 -6 -15t-14.5 -6t-14.5 6t-6 15v215h-216q-8 0 -14 6t-6 15t6 15
t14 6h216v215q0 9 6 15t14.5 6t14.5 -6t6 -15v-215h216q9 0 15 -6t6 -15t-6 -15t-15 -6zM1042 225q0 -69 -62 -69q-18 -2 -59 -2q-4 28 -10 51h45q37 -2 37 35q4 114 4 237h-58v-12q-2 -230 -88 -322q-24 27 -37 41q74 86 74 283v10h-59v49h61v84h51v-84h107q0 -192 -6 -301
zM1275 154h-51v45h-84v-45h-49v405h184v-405zM1781 140q-160 67 -204 175q-11 -28 -35 -64q-48 -67 -170 -107l-26 43q119 38 160 96q15 21 26 49h-175v47h188q8 42 8 68v15h-166v47h108q-26 46 -53 79l45 21q29 -38 58 -83l-32 -15h106q25 39 49 105l47 -13
q-21 -58 -42 -92h98v-47h-173v-15q0 -36 -7 -68h205v-47h-179q38 -93 192 -147zM1916 144l-49 21q47 92 81 178l45 -18q-34 -91 -77 -181zM1860 451l34 34q43 -34 86 -76l-34 -34q-35 37 -86 76zM1958 494q-32 35 -89 77l36 34q62 -44 88 -77zM2325 157h-328v47h141v121
h-116v47h116v109h-128v47h132q-25 59 -32 73l45 12q20 -42 34 -85h126v-47h-128v-109h113v-47h-113v-121h138v-47z" />
    <glyph glyph-name="wutuijian" unicode="&#xe666;" 
d="M559 42q71 -6 78 -6q20 1 48 13q14 5 21 -6q21 -31 38 -47q33 -33 82 -34q-43 -22 -89 -25q-9 -1 -18 11q-9 11 -24 8q-20 -5 -36 -6q-8 -1 -18 4q-49 26 -82 88v0zM786 -45l-6 6q-46 19 -79 71q-2 3 -7.5 4.5t-8.5 0.5q-44 -17 -83 -10q-1 0 -22 2q49 -87 115 -64
q17 5 29 -9q8 -9 21 -9q3 1 41 8v0zM786 -45zM886 831q9 -26 11 -52.5t-3.5 -53.5t-25.5 -48.5t-52 -31.5v4q36 48 35 123q-1 19 11 29q4 3 8 8t8.5 11.5t7.5 10.5v0zM841 670q20 5 33 32t13.5 55t-8.5 49q-2 -3 -7.5 -9t-8.5 -10.5t-3 -8.5q-1 -64 -19 -108v0zM841 670z
M197 497q-7 -21 -11 -32q-45 9 -60 64q4 -2 10.5 -8t11.5 -9.5t10 -5.5q3 -1 39 -9v0zM197 497zM712 694q9 -15 4.5 -35.5t-19.5 -37.5q-3 18 -2 19q1 5 5 13.5t6 12.5q0 1 6 28v0zM712 694zM759 515v11q-1 18 -15.5 31.5t-32.5 13.5h-190v0h-192q-19 0 -33.5 -15
t-14.5 -34.5v-28.5v-264q-1 -24 16 -39.5t37 -13.5h31q7 0 6 -6q-2 -11 -3 -24q0 -10 11 -22l6 -12q1 -1 1 -4t1 -4q3 -4 6 -4q2 0 3.5 2t1.5 3q-2 14 13 17q1 0 6 2q22 12 56 46q6 5 11 5q31 1 63 1q6 0 12 -5q5 -5 16 -15t17 -15q20 -17 39 -22q8 -3 9 -5t1 -10q0 -5 3 -7
h3.5t3.5 1t2 8l4 16q16 17 9 46q-1 5 0.5 6.5t6 1.5h17.5h18q20 -1 36 15t16 37q-1 36 -1 287v0zM423 142q-8 -6 -21 -11q-9 -3 -15.5 1.5t-6.5 14.5v5q0 19 18 39q16 17 47 29q8 3 46 15q3 1 8 0q8 0 5 -8q-6 -12 -9 -15q-29 -38 -72 -70v0zM494 192q5 7 12 18t10 14
q3 -5 10.5 -15t12.5 -17h-45v0zM655 139q-6 -14 -22 -9q-18 6 -40 26q-27 24 -43 41q-10 10 -20 27q-7 12 8 13q30 -8 32 -9q33 -11 52 -24q26 -18 33 -40q4 -15 0 -25v0zM745 365q0 -26 -1 -137q0 -26 -22 -34q-7 -3 -21 -3q-21 0 -43 1q-6 0 -10 4q-37 36 -104 49
q-16 4 -25 -5h-3t-3 1q-9 8 -24 4q-67 -15 -98 -47q-2 -3 -5.5 -4.5t-6.5 -2t-6.5 -0.5h-6.5q-2 0 -35 1q-16 0 -25.5 9.5t-9.5 24.5v147v0v146q0 14 10.5 25t22.5 11h51h130h164h36q15 -1 24.5 -10.5t9.5 -25.5q1 -40 1 -154v0zM675 433q-20 17 -47 25q-9 3 -31 5l-7 -4
q6 -5 7 -5q0 -1 10 -3v-2q-7 -6 -8 -6q-14 -9 -19 -26t2 -32q8 -20 25 -27t37 0q34 12 31 51q-1 6 4 7q9 3 3 10l-7 7v0zM591 416q0 3 3.5 6t6.5 3q4 0 7 -3t3 -7q0 -10 -10 -10q-4 0 -7 3.5t-3 7.5v0zM608 370q-5 0 -9 4.5t-4 10t4 9.5t10 4q4 0 8 -4.5t4 -9.5q0 -6 -4 -10
t-9 -4v0zM643 381q-9 0 -15 7t-5.5 16t7.5 15.5t16 6.5q8 -1 14.5 -8t6.5 -16t-7 -15t-17 -6v0zM428 446q-1 1 -5 4l9 10q-1 3 -3 3.5t-5 0t-4 -0.5h-1v0q-25 -2 -56 -23q-7 -5 -16 -16q-8 -9 3 -10q6 0 6 -7q0 -28 24 -42q23 -13 45 0q24 13 25 39t-22 42v0zM367 418
q0 3 3.5 6.5t7 3.5t6 -3t3.5 -7q0 -9 -9 -9t-11 9v0zM384 374q-5 0 -9 4.5t-4 9.5q0 13 14 12q12 0 12 -13t-13 -13v0zM420 384q-9 0 -15.5 6.5t-6.5 14.5q0 10 6.5 16.5t14.5 6.5q21 0 23 -23q0 -7 -7 -14t-15 -7v0zM516 310q-26 -1 -45 -22q0 -1 -2 -12l10 2q1 0 13 4.5
t18 5.5q18 2 40 -10q0 -1 7 -2l-1 8q-17 25 -40 26v0zM637 340q-2 -1 -5 0q-9 4 -13.5 3t-10.5 -8h39v2q-5 7 -10 3v0zM393 345l-6 -4l6 -3q3 0 20 2v0h2q1 0 6 1l-5 3q-7 5 -23 1v0z" />
    <glyph glyph-name="vip3" unicode="&#xe672;" horiz-adv-x="1322" 
d="M1252 580l-62 -400q-3 -19 -13 -37q-11 2 -21 2q-32 0 -56.5 -20.5t-28.5 -50.5h-10h-400h-401h-9q-5 30 -29 50.5t-57 20.5q-10 0 -21 -2q-10 18 -13 37l-62 400q-31 11 -50 37.5t-19 58.5q0 43 31.5 73.5t76 30.5t76.5 -30.5t32 -73.5q0 -33 -20 -59.5t-51 -37.5
q24 -82 83 -132t145 -50q90 0 152.5 66t62.5 168v7q-35 17 -56 49.5t-21 71.5q0 57 42 97t101 40q1 0 3.5 -0.5t3.5 -0.5t3 0.5t4 0.5q59 0 100.5 -40t41.5 -97q0 -39 -21 -71.5t-56 -49.5v-7q0 -102 62.5 -168t152.5 -66q86 0 145.5 50t83.5 132q-32 11 -51.5 37.5
t-19.5 59.5q0 43 31.5 73.5t76 30.5t76 -30.5t31.5 -73.5q0 -32 -19 -58.5t-50 -37.5zM578 344l-67 -191h-1l-66 191h-39l84 -230h43l84 230h-38zM680 344h-35v-230h35v230zM827 344h-97v-230h36v89h61q84 0 84 71q0 70 -84 70zM824 233h-58v81h58q26 0 39 -10q12 -9 12 -30
t-12 -31t-39 -10zM248 38h413h413q6 -20 21.5 -35t36.5 -20l-6 -48q-4 -27 -25.5 -45t-49.5 -18h-390h-391q-28 0 -49.5 18t-25.5 45l-6 48q21 5 36.5 20t22.5 35z" />
    <glyph glyph-name="icon130" unicode="&#xe6de;" 
d="M962 704q2 12 -7 19l-140 108q-5 4 -12 4h-563q-6 0 -11 -4l-160 -108q-6 -5 -7 -13h-1v-171q0 -66 40 -118v-388q0 -41 28.5 -70.5t69.5 -29.5h626q41 0 69.5 29.5t28.5 70.5v388q39 52 39 118v165zM241 791q6 4 12 4h538q6 0 11 -4l103 -80q-596 0 -783 -1zM825 -27
h-626q-25 0 -42 17.5t-17 42.5v350q27 -19 58 -26q50 -12 97.5 5t78.5 56q1 1 2 0q25 -31 60.5 -48.5t75.5 -17.5t75.5 17.5t60.5 48.5q1 1 2 0q31 -39 78.5 -56t97.5 -5q31 7 58 26v-350q0 -25 -17.5 -42.5t-41.5 -17.5zM923 532q0 -63 -46 -104.5t-108 -34.5
q-33 4 -61 24.5t-44 51.5l-15 27l-17 -32q-24 -43 -69.5 -62t-93.5 -3q-51 17 -79 69l-15 28l-17 -32q-23 -41 -65.5 -60t-87.5 -8q-47 12 -75.5 52t-28.5 90v132q0 1 1 1h820q1 0 1 -1v-138z" />
    <glyph glyph-name="guankan" unicode="&#xe745;" 
d="M511 524q167 0 285 -59q61 -30 94.5 -71.5t33.5 -89t-33.5 -89t-94.5 -71.5q-118 -59 -284.5 -59t-285.5 59q-60 30 -94 71.5t-34 89t34 89t94 71.5q119 59 285 59v0zM772 417q-107 54 -260.5 54t-261.5 -54q-46 -23 -72 -52t-26 -60t26 -60.5t72 -52.5
q108 -53 261.5 -53t260.5 53q47 23 73 52.5t26 60.5t-26 60t-73 52zM511 478q72 0 123 -50.5t51 -122.5t-51 -123t-123 -51t-122.5 51t-50.5 123t50.5 122.5t122.5 50.5v0zM596 389.5q-35 35.5 -84.5 35.5t-85 -35.5t-35.5 -85t35.5 -84.5t85 -35t84.5 35t35 84.5t-35 85z
M460 307q0 -11 -8 -19t-19 -8t-19 8t-8 19q0 41 29 70v0v1q30 29 71 29q11 0 19 -8t8 -19t-8 -19t-19 -8q-19 0 -33 -13v0q-13 -14 -13 -33zM301 611q-4 11 1.5 21t16 13t20.5 -2t13 -16l19 -60q3 -11 -2 -21t-15.5 -13t-20.5 2t-13 16zM484 667q0 11 8 19t19 7.5t19 -8.5
t8 -19l-2 -86q0 -12 -8 -19.5t-19 -7.5t-19 8t-7 19zM822 573q6 9 17 12t20.5 -3t12 -16.5t-2.5 -20.5l-29 -48q-6 -9 -16.5 -12t-20 2.5t-12.5 16.5t3 20zM672 636q3 11 13 16t20.5 2t15.5 -13t2 -21l-20 -63q-3 -11 -13 -16t-20.5 -1.5t-15.5 13t-2 20.5zM154 540
q-5 9 -2.5 20t12 16.5t20.5 2.5t16 -12l29 -48q6 -10 3 -20.5t-12.5 -16.5t-20.5 -3t-16 12z" />
    <glyph glyph-name="fufeiguankan" unicode="&#xe65c;" 
d="M513 386h2l-2 -2v2v0zM590 420h-36l45 49q9 9 0 19l-8 10q-4 4 -10 4t-10 -4l-57 -62l-58 62q-3 4 -9 4t-10 -4l-8 -10q-9 -9 0 -19l45 -49h-36q-6 0 -10 -4t-4 -10v-14q0 -6 4 -10t10 -4h55v-13h-55q-6 0 -10 -4.5t-4 -9.5v-14q0 -6 4 -10t10 -4h55v-41q0 -6 4 -10
t10 -4h14q6 0 10 4t4 10v41h55q6 0 10 4t4 10v14q0 5 -4 9.5t-10 4.5h-55v13h55q6 0 10 4t4 10v14q0 6 -4 10t-10 4zM513.5 835q-91.5 0 -174.5 -35.5t-143.5 -96t-96 -143.5t-35.5 -174.5t35.5 -175t96 -143.5t143.5 -95.5t174.5 -35.5t175 35.5t143.5 95.5t96 143.5
t36 175t-36 174.5t-96 143.5t-143.5 96t-175 35.5zM769 220q0 -20 -14 -34.5t-34 -14.5h-414q-20 0 -34 14.5t-14 34.5v83q0 22 18 33l1 1q36 12 36 48q0 32 -37 49q-18 10 -18 34v83q0 20 14 34t34 14h414q20 0 34 -14t14 -34v-83q0 -22 -17 -33q-22 -12 -30 -22.5
t-8 -27.5t8 -27.5t30 -21.5q10 -7 13.5 -14t3.5 -19v-83z" />
    <glyph glyph-name="favorite" unicode="&#xe696;" 
d="M232 -59v0q-10 0 -17.5 7.5t-7.5 17.5q0 1 1 3l39 287l-202 212q-6 7 -6 17q0 9 5.5 16t14.5 8l284 50l140 257q7 13 21 13h1q14 0 21 -13l145 -262l281 -45q9 -1 15 -8t6 -16q0 -10 -7 -17l-207 -210l42 -281q1 -2 1 -4q0 -12 -10 -19q-7 -5 -15 -5q-5 0 -10 2l-262 120
l-262 -127q-5 -3 -11 -3v0zM113 469l178 -188q7 -7 7 -17v-3l-35 -253l231 112q5 3 11 3q5 0 10 -3l231 -105l-37 248q-1 2 -1 4q0 10 8 17l181 184l-246 39q-12 2 -17 13l-129 233l-124 -228q-6 -10 -18 -12z" />
    <glyph glyph-name="good" unicode="&#xe699;" 
d="M224 515h-109q-15 0 -26 -11t-11 -26v-500q0 -16 11 -26.5t26 -10.5h701q15 0 25.5 9.5t11.5 24.5l82 481q1 2 1 4q0 15 -11 26t-26 11h-317q26 33 43 72q30 68 30 143v0q0 25 -2 43v2q-5 32 -29 53.5t-57 21.5q-35 0 -60.5 -25t-26.5 -60q-6 -97 -77 -163
q-73 -69 -168 -69h-11zM212 -10h-85v476h85v-476v0zM806 -10h-545v479q101 9 176 79q85 80 92 196l-21 1l21 -1q0 15 11.5 26.5t26.5 11.5q14 0 25 -9t12 -24v0v0q2 -15 2 -37q0 -65 -26 -123q-25 -57 -70 -99v0l-2 -2v0q-1 -2 -3 -4v0q0 -1 -1 -2v0q0 -1 -1 -2v0v-2v0
q0 -2 -0.5 -3t-0.5 -2v0v-1v-1v-1v-2v0q1 -3 3 -7v0q0 -1 1 -2v0q0 -1 1 -2v0l2 -2v0v0l0.5 -0.5l0.5 -0.5q1 -1 2 -1v-1h1v0l1 -1v0h1v-1h1v0q1 0 1 -1h1v0q2 -1 4 -1v0h1v0h1v0h3v0h357z" />
    <glyph glyph-name="map" unicode="&#xe6a2;" 
d="M514 -122v0q-13 0 -21 10l-301 435l-1 1q-21 36 -34 75q-18 57 -18 116q0 102 50 188t136.5 136.5t188.5 50.5q72 0 143 -35q65 -31 118 -87q52 -54 82 -120q31 -68 31 -133q0 -59 -18 -115q-13 -40 -33 -75q-1 0 -1 -1l-302 -436q-8 -10 -20 -10zM233 350l281 -405
l281 406q18 30 28 64q16 48 16 100q0 54 -26 112t-73 107q-49 51 -108 79t-118 28q-89 0 -164 -44t-118.5 -119t-43.5 -163q0 -52 16 -100q11 -34 29 -65zM816 338v0v0zM513 319q-73 0 -124.5 51.5t-51.5 124t51.5 124t124.5 51.5t124.5 -51.5t51.5 -124t-51.5 -124
t-124.5 -51.5zM513 621q-52 0 -89.5 -37t-37.5 -89t37.5 -89.5t89.5 -37.5t89 37.5t37 89.5t-37 89t-89 37z" />
    <glyph glyph-name="down" unicode="&#xe6a8;" horiz-adv-x="1025" 
d="M468 -42v0q18 -17 42 -17h1q24 1 41 18l335 340q7 7 7 17.5t-7 17.5t-17.5 7t-17.5 -8l-316 -320v795q0 10 -7 17t-17.5 7t-17.5 -7t-7 -17v-799l-321 326q-7 7 -17 7t-17.5 -7t-7.5 -17t7 -18z" />
    <glyph glyph-name="skip" unicode="&#xe6be;" horiz-adv-x="1025" 
d="M567 75q-5 0 -10 2q-14 6 -14 22v169q-73 -5 -146 -22q-83 -20 -151 -52q-84 -40 -141 -98q-12 -12 -28 -4.5t-14 25.5q9 60 43 137q30 66 72 122q53 69 123 117q15 11 38 25.5t84 40t120 34.5v150q0 15 14.5 21.5t26.5 -3.5l364 -321q9 -7 9 -18.5t-8 -18.5l-365 -322
q-7 -6 -17 -6zM567 319q11 0 18 -7.5t7 -17.5v-140l303 267l-303 267v-117q0 -9 -6.5 -16t-15.5 -8q-37 -4 -76 -15.5t-65.5 -23t-51.5 -26t-33.5 -20.5t-13.5 -9h-1q-63 -44 -112 -107q-39 -51 -66 -112q-11 -25 -20 -51q43 31 94 56q74 34 162 55q101 24 180 25v0z" />
    <glyph glyph-name="xinde" unicode="&#xe698;" 
d="M963 450q0 104 -60 192.5t-163 140t-224.5 51.5t-225 -51.5t-163.5 -140t-60 -192.5q0 -88 45.5 -166.5t127.5 -134.5q11 -7 24 -4.5t20.5 13t5 24t-13.5 20.5q-69 47 -107 111.5t-38 136.5q0 86 51.5 160t140 117t192.5 43t192.5 -43t140 -117t51.5 -160.5t-51.5 -160.5
t-140 -116.5t-192.5 -42.5q-1 0 -3 -0.5l-2 -0.5q-12 2 -22 -4t-14 -17q-9 -25 -94 -73q17 58 3 79q-11 15 -30 15v0q-13 0 -22.5 -9t-9.5 -23q0 -8 4 -15q-5 -33 -33 -100q-8 -20 8 -35q9 -9 22 -9v0q7 0 13 2q144 65 188 126q119 2 220.5 53.5t160.5 139.5t59 191z
M343 291q6 -3 14 -3v0q20 0 29 17l71 140l92 -142q9 -15 26 -15h1q17 0 26 14l129 189q8 11 5.5 24t-13.5 20.5t-24 5t-21 -13.5l-101 -149l-96 148q-9 15 -28 15q-19 -1 -27 -18l-97 -188q-6 -12 -2 -24.5t16 -19.5z" />
    <glyph glyph-name="aixin2" unicode="&#xe719;" 
d="M910 527q-5 87 -65.5 147t-142.5 60h-1q-86 0 -147 -54q-25 -22 -38 -46q-26 46 -75 73t-110 27q-82 0 -142.5 -60t-65.5 -147q-2 -4 -0.5 -17t1.5 -30.5t5.5 -41t12 -49.5t20.5 -56t31.5 -60t45 -61.5t60.5 -60.5t78.5 -58t98.5 -53q15 -8 38 -8q20 0 40 9q30 13 67 33
l6.5 4t19 12t24.5 16q8 6 10 16.5t-4 19t-16.5 10.5t-18.5 -4l-47 -30q-33 -18 -62 -31q-9 -4 -18 -4t-14 1l-5 2l-0.5 0.5l-0.5 0.5q-53 24 -98 53t-76 58.5t-57 61.5t-40 61t-26 57.5t-15.5 52t-7.5 43.5t-2 32t0 18q4 67 50 113.5t109 46.5q69 0 114 -41t45 -104v-5
q1 -10 9 -16t17.5 -5.5t16.5 8t7 17.5q0 63 47 104q45 42 113 42h1q62 0 107.5 -46.5t49.5 -114.5q2 -27 -3 -66q-2 -10 4 -18.5t16.5 -10t19 4.5t9.5 16q7 41 5 78zM843 345zM817 344.5q0 -10.5 7.5 -18t18 -7.5t18 7.5t7.5 18t-7.5 18t-18 7.5t-18 -7.5t-7.5 -18zM799 267
zM773 266.5q0 -10.5 7.5 -18t18 -7.5t18 7.5t7.5 18t-7.5 18t-18 7.5t-18 -7.5t-7.5 -18zM735 194zM710 193.5q0 -10.5 7 -18t17.5 -7.5t18 7.5t7.5 18t-7.5 18t-18 7.5t-17.5 -7.5t-7 -18z" />
    <glyph glyph-name="shenhechenggong" unicode="&#xe627;" 
d="M840 52l-1 -1l-2.5 -2.5l-3.5 -3.5l-3 -3q-3 -3 -10 -10.5t-11 -10.5l-21.5 -21.5t-25 -24.5t-21.5 -21q-1 -1 -12.5 -13.5t-17.5 -18.5q-4 -2 -6.5 -3.5t-4 -2t-4 0t-3.5 0.5t-3.5 2.5t-4 3.5t-5 5t-5.5 6q-25 26 -25 27l12 12l7 7l4.5 4.5l6.5 6.5q13 14 39.5 39.5
t39.5 38.5q4 4 11.5 12t11.5 11q1 2 -32 -31l-66.5 -66.5l-33.5 -33.5q-2 1 -3.5 3t-3.5 4t-4 3l-21 22l-69 69l-5 4q2 -2 1 2q0 2 -1 7q-3 11 3.5 20.5t14.5 13.5q2 1 6 1.5t5 1.5q9 0 15.5 -1t12 -5t8 -6t9 -9t7.5 -8q13 -12 22 -21t22 -21q2 -3 10 -11l14 -14l6 -6
q228 227 270 271q13 8 28 5t22 -13q5 -8 5 -21t-5 -20l-66 -66l-64 -64l1 -1zM287 217h217q13 0 22 -9.5t9 -22t-9 -21.5t-22 -9h-217q-12 0 -21.5 9t-9.5 21.5t9.5 22t21.5 9.5zM690 588h-403q-12 0 -21.5 9t-9.5 22t9.5 22t21.5 9h403q12 0 21.5 -9t9.5 -22t-9.5 -22
t-21.5 -9zM690 371h-403q-12 0 -21.5 9t-9.5 22t9.5 22t21.5 9h403q12 0 21.5 -9t9.5 -22t-9.5 -22t-21.5 -9zM906 754q0 43 -8 53q-1 3 -3.5 4.5l-5 3t-6.5 2.5t-6.5 1t-8 0.5t-7.5 0.5h-8.5h-8.5h-714h-8h-8.5t-7.5 -0.5t-7.5 -0.5t-6.5 -1t-6 -2.5t-4.5 -3t-4.5 -4.5
q-7 -9 -7 -53v-700v-7.5v-8.5v-8t0.5 -8t1 -7.5t1.5 -7.5t2 -6.5t2.5 -5.5t3.5 -4q11 -7 43 -7h358v-1h1.5h0.5q13 0 22 -9t9 -22t-9 -22t-22 -9q-6 0 -13 3h-347q-27 0 -35 2q-53 15 -71 56q-2 5 -3.5 10t-2.5 12t-2 11.5t-1 13.5v13v15v14v682q0 50 6 64q17 40 50 55
q6 2 20 7q1 0 5 0.5t6 1.5h782q2 -1 6 -1.5t6 -0.5q14 -5 19 -7q33 -15 51 -55q6 -16 6 -64v-331q2 -6 2 -10q0 -13 -9 -22t-22 -9t-22 9t-9 22l0.5 0.5t0.5 1.5z" />
    <glyph glyph-name="laba" unicode="&#xe6a5;" 
d="M864 58q-13 0 -19 6q-11 21 0 32q58 53 89.5 124t31.5 151q0 86 -36.5 160.5t-103.5 127.5q-9 5 -10.5 16.5t3.5 15.5q9 13 22 16t17 -3q80 -57 123 -143t43 -183q0 -183 -141 -314q-3 0 -9.5 -3t-9.5 -3zM774 147q-12 0 -19 7q-11 23 7 32q42 33 65.5 82.5t23.5 102.5
q0 59 -28.5 112.5t-80.5 86.5q-9 4 -10 15.5t4 16.5q4 9 16 10t16 -4q61 -38 94.5 -101t33.5 -136q0 -62 -27 -121t-75 -103h-20zM678 243q-6 0 -19 13q-11 23 7 32q44 27 44 90q0 33 -17.5 59.5t-46.5 36.5q-9 5 -13 13.5t1 18.5q5 9 13.5 13t18.5 -1q44 -19 70 -56t26 -84
q0 -40 -19 -75t-52 -53q0 -7 -13 -7zM205 218h-147q-24 0 -41 16.5t-17 40.5v224q0 24 17 41t41 17h147q9 0 17 -8t8 -17.5t-8 -17.5t-17 -8h-147q-3 0 -4.5 -2t-2.5 -3v-2v-224q0 -3 1.5 -4.5t3.5 -1.5h2h147q9 0 17 -8t8 -17.5t-8 -17.5t-17 -8zM557 -128v0q-19 0 -32 13
l-339 339q-7 6 -7 19v288q0 13 7 19l339 333q13 13 32 13q20 0 35.5 -14t15.5 -37v-928q0 -13 -13 -39q-6 0 -19 -3t-19 -3zM230 250l327 -333v0v928l-327 -327v-268z" />
    <glyph glyph-name="zongjinenei" unicode="&#xe60e;" horiz-adv-x="1026" 
d="M749 401.5q0 -22.5 -44.5 -37.5t-108.5 -15t-108.5 15t-44.5 37t45 37.5t108 15.5q64 0 108.5 -15t44.5 -37.5zM425 637q65 0 109.5 -15t44.5 -37.5t-44.5 -37.5t-109.5 -15q-64 0 -109 15t-45 37q0 21 45.5 37t108.5 16zM424 227q-65 0 -111 20.5t-46 48.5v51q0 10 5 18
q12 -24 54.5 -39.5t97.5 -15.5v-83zM424 330q-65 0 -111 20.5t-46 48.5v51q0 10 5 17q12 -23 54.5 -38.5t97.5 -15.5v-83zM425 429q-65 0 -111.5 20.5t-46.5 49.5v50q0 9 4 18q2 -22 46.5 -36.5t107.5 -15.5q63 0 107 14.5t47 35.5q3 -12 3 -16v-48q0 -17 -16 -30
q-49 -3 -85.5 -14t-46.5 -28h-9zM754 218q0 -29 -46.5 -49.5t-111.5 -20.5t-111.5 20.5t-46.5 49.5v49q0 10 5 17q13 -22 56 -37t97 -15q56 0 98.5 15t54.5 39q5 -10 5 -17v-51zM758 317q0 -28 -46.5 -48.5t-112 -20.5t-112 20.5t-46.5 48.5v51q0 10 4 16q3 -21 47 -36
t106 -15t106 15t47 36q3 -9 7 -16v-51z" />
    <glyph glyph-name="wodeshezhinei0" unicode="&#xe610;" 
d="M761 386l-2 34q-1 8 -8 15.5t-15 9.5l-8 2q-30 9 -47 37q-16 30 -8 59l2 8q3 8 0 17.5t-9 14.5q-8 6 -29 19l-31 16q-19 7 -33 -8l-5 -6q-24 -22 -55 -22q-33 0 -56 22l-5 6q-14 14 -33 7q-9 -3 -30 -15l-30 -19q-6 -6 -8.5 -15.5t-0.5 -17.5l2 -7q8 -32 -8 -59
q-15 -28 -47 -38l-8 -1q-7 -2 -14 -9.5t-9 -15.5q-1 -9 -1 -34l1 -34q1 -8 8 -15.5t15 -9.5l8 -1q31 -9 47 -38t8 -59l-2 -7q-2 -8 0.5 -17.5t8.5 -14.5q8 -6 30 -19l30 -16q20 -7 33 8l5 5q24 22 56 22t56 -22l5 -6q14 -14 33 -7q9 3 30 15l30 19q6 6 8.5 15.5t0.5 17.5
l-2 7q-8 32 8 59q15 27 47 38l8 1q7 2 14 9.5t9 15.5zM511 287q-41 0 -70 29t-29 70t29 70t70.5 29t70.5 -29t29 -70t-29 -70t-71 -29z" />
    <glyph glyph-name="tianjiabanzhurennei" unicode="&#xe611;" 
d="M684 608h-343q-21 0 -36 -15t-15 -35v-343q0 -21 15 -36t36 -15h343q21 0 35.5 15t14.5 36v343q0 21 -15 35.5t-35 14.5zM671 374q0 -6 -4.5 -10.5t-11.5 -4.5h-117v-117q0 -6 -4.5 -10.5t-10.5 -4.5h-21q-6 0 -10.5 4.5t-4.5 10.5v117h-118q-7 0 -11.5 4.5t-4.5 10.5v21
q0 6 4.5 10.5t11.5 4.5h117v119q0 6 4.5 10.5t11.5 4.5h20q6 0 11 -4.5t5 -10.5v-119h117q6 0 10.5 -4.5t5.5 -10.5v-21z" />
    <glyph glyph-name="ren3" unicode="&#xe60f;" 
d="M759 113v0v0h-494v0v0q-13 0 -22 9.5t-9 23.5q0 98 56.5 175.5t145.5 103.5q-36 21 -57.5 58.5t-21.5 82.5q0 67 45.5 114t109.5 47t109.5 -47.5t45.5 -113.5q0 -45 -21.5 -82.5t-57.5 -58.5q89 -26 145.5 -103.5t56.5 -175.5q0 -14 -9 -23.5t-22 -9.5z" />
    <glyph glyph-name="wodetongxuenei" unicode="&#xe612;" 
d="M582 641q49 0 83 -35t34 -84t-34 -84t-83 -35q-8 0 -12 1q17 30 17 63q0 46 -28 81t-71 44q35 49 94 49zM447.5 586q48.5 0 83 -34.5t34.5 -84t-34.5 -84t-83 -34.5t-83 34.5t-34.5 84t34.5 84t83 34.5zM445 166q-58 0 -102.5 7.5t-62.5 15.5t-18 14q0 52 26.5 96.5
t70.5 69.5l3 1q41 -29 84 -29q41 0 83 29q6 -3 9 -5q41 -25 65 -68.5t24 -93.5q1 -6 -17 -14t-62.5 -15.5t-102.5 -7.5zM654 224q-2 48 -26 89.5t-63 65.5q-5 4 -8 5q7 10 9 13q9 -1 15 -1q41 0 83 29q5 -3 9 -5q41 -26 65 -69.5t24 -92.5q0 -5 -10.5 -11t-37 -12.5
t-60.5 -10.5z" />
    <glyph glyph-name="guanzhugongzhonghaonei" unicode="&#xe613;" horiz-adv-x="1025" 
d="M513 524q-26 38 -63 55.5t-72.5 12t-66.5 -24.5t-50 -54.5t-19 -76.5q0 -28 10.5 -56t24 -47.5t39 -44t40.5 -37t44 -33.5q26 -21 53 -40.5t38 -28.5t22 -19q17 17 112 88q33 24 55 43t49 48t40.5 61t13.5 67q0 41 -19 76t-50.5 54t-67 24.5t-72 -12t-61.5 -55.5z
M553 334q-35 -27 -41 -33q-3 3 -41 33q-19 14 -28 22t-19.5 25t-10.5 34q0 26 17.5 43t41.5 15t40 -25q16 23 40 25t41.5 -15t17.5 -43q0 -38 -58 -81z" />
    <glyph glyph-name="wodedingdannei" unicode="&#xe614;" 
d="M534 510q24 0 41 17.5t17 42.5q0 28 -21 46q2 -7 2 -11q0 -18 -12 -30t-29 -12q-16 0 -28 12t-12 30q0 3 1 9q-19 -18 -18 -44q0 -25 17.5 -42.5t41.5 -17.5zM256 226l95 -38q-4 7 -13.5 70.5t-17 122.5t-7.5 60zM531 586q17 0 28.5 12t11.5 29t-11.5 28.5t-28 11.5
t-28 -11.5t-11.5 -28.5t11.5 -29t27.5 -12zM703 612l-102 -16q9 -17 9 -38q0 -33 -22.5 -56t-54 -23t-54 23t-22.5 56q0 8 1 16l-126 -19q4 -122 59 -365l393 70q-11 12 -31.5 101t-35 168.5t-14.5 82.5zM409 418l168 25l5 -19l-168 -25zM445 277l-6 21l206 31l6 -22z
M433 338l-9 21l266 36l8 -21zM639 102l6 93l-211 -22z" />
    </font>
</defs>
</svg>
